<svg width="85" height="31" viewBox="0 0 85 31" fill="none" xmlns="http://www.w3.org/2000/svg"><g clip-path="url(#clip0_8325_2185)" fill="#6F6F6F"><path d="M8.50513.798421 17.7049 24.4779h5.353L14.8872 3.35019c-.5959-1.5408-2.0842-2.556668-3.743-2.554777L8.50513.798421ZM57.1361 6.90459c0-3.90644 2.0517-6.057788 5.9769-6.057788 1.6834 0 3.0639.320588 4.2153.894108l-1.1925 3.71087c-.7234-.36509-1.3609-.53856-2.0561-.53856-1.4948 0-2.2412.8664-2.2412 2.50419v1.09386l4.3203.00919-.0029 3.34544h-3.0288v.0003h-1.2916v12.6722l-4.7023.0107.001-12.6829h-1.8598V8.51127h1.8602l.0015-1.60668ZM25.0968.99292V24.4471h4.6158V.99292h-4.6158ZM2.77318 24.447c1.53143 0 2.77317-1.2176 2.77317-2.7204 0-1.5027-1.24174-2.7204-2.77317-2.7204C1.24175 19.0062 0 20.2244 0 21.7266c0 1.5023 1.24175 2.7204 2.77318 2.7204ZM40.9284 24.5021c-3.925 0-5.9765-2.1514-5.9765-6.0578l-.0013-6.5176h-3.1734V8.52316h3.1725l-.0009-3.41913 4.7022-1.54165v4.96078h1.2918v.00029h3.0196l.003 3.39405-4.3114.0092v6.0047c0 1.6378.7467 2.5042 2.2416 2.5042.695 0 1.3322-.1734 2.0561-.5385l1.3144 3.8694c-1.1512.5735-2.6542.7356-4.3377.7356ZM69.7284 27.1379l-1.1573 3.6219 2.1001.0228c1.4699.0378 2.8377-.096 3.6276-.3551 1.1758-.3857 1.8168-.7848 2.4919-1.5521.6639-.754.8866-1.1833 1.7137-3.3031 1.7034-4.365 6.4912-16.79005 6.4912-16.85389l-4.7053-.00073-3.634 11.13452-3.7102-11.32901-4.7292.00034 6.2426 15.97207c-.4113 2.1323-1.5202 2.6878-4.7311 2.6423ZM49.616 5.86965c1.3116 0 2.3751-1.04322 2.3751-2.33034 0-1.28663-1.0635-2.32984-2.3751-2.32984-1.3115 0-2.3749 1.04273-2.3749 2.32984 0 1.28712 1.0634 2.33034 2.3749 2.33034ZM47.2651 24.5931V8.52075h4.7256V24.5931h-4.7256Z"/></g><defs><clipPath id="clip0_8325_2185"><path fill="#fff" d="M0 .795532h85v30H0z"/></clipPath></defs></svg>