<svg width="131" height="37" viewBox="0 0 131 37" fill="none" xmlns="http://www.w3.org/2000/svg"><g clip-path="url(#clip0_8325_2239)" fill="#6F6F6F"><path fill-rule="evenodd" clip-rule="evenodd" d="M100.623 11.3329c-.186.0649-.402.2367-.517.4092-.3631.5479-.1704 1.2724.42 1.5754.157.0803.201.089.451.089.252 0 .296-.0087.452-.089.222-.1135.416-.3111.513-.5192.064-.1397.075-.2039.075-.4457 0-.2594-.007-.2987-.096-.4806-.107-.2205-.28-.394-.497-.5002-.183-.0888-.601-.1091-.801-.0389Zm-47.9735 5.7526v5.7113h1.4938V11.3742h-1.4938v5.7113Zm63.4415-.0005v5.7118h1.494V20.422c0-2.5923 0-2.5925.171-3.0183.185-.4606.507-.7875.933-.9488.157-.0593.271-.0782.541-.0893.582-.0241.996.1139 1.318.4378.178.1812.273.3466.38.6677l.069.2078.009 2.5589.007 2.559H122.506v-2.5552c0-2.164-.007-2.603-.046-2.8674-.196-1.3378-.973-2.1772-2.177-2.3527-.499-.0725-1.175.0022-1.614.1786-.37.1482-.759.4269-.97.6948l-.113.1446-.008-2.3252-.007-2.3254-.74-.0078-.74-.008v5.7119Zm-74.103.1172v5.5946l2.0723-.0006c1.6409-.0005 2.1387-.0096 2.3912-.0436 1.3777-.1857 2.4063-1.0192 2.7109-2.1967.1711-.6611.1309-1.3084-.1213-1.9533-.2586-.6611-.8085-1.2037-1.4785-1.459l-.2461-.0937.1256-.0488c.205-.0795.5762-.3367.7715-.5346.5662-.5736.8137-1.422.6764-2.3183-.2004-1.3087-1.0461-2.1583-2.4411-2.4523-.3073-.0648-.3753-.067-2.3886-.0775l-2.0723-.0108v5.5946Zm36.378.002v5.5926h1.5524v-3.373l.7688-.8344c.6187-.6716.7759-.827.8057-.7969.0204.0205.8582 1.1516 1.8618 2.5134l1.8249 2.4761.9721.0078c.5345.0042.972 0 .972-.0096s-.3587-.4938-.7971-1.0759c-.4382-.5822-1.4679-1.953-2.2881-3.0464-.8203-1.0933-1.5029-2.0025-1.5171-2.0206-.0269-.0343-.0286-.0324 2.9454-3.2565.871-.9443 1.588-1.7287 1.5934-1.7431.0055-.0149-.426-.0262-.9971-.0262h-1.0068l-2.5617 2.8532-2.5616 2.8531-.0075-2.8531-.0075-2.8532h-1.552v5.5927Zm48.528-3.5826-.009.7936-.082.178c-.202.4363-.531.6082-1.165.6082h-.292v1.3648h1.436v2.203c0 1.3904.012 2.2735.031 2.3942.137.8586.629 1.4238 1.423 1.6366.396.1061 1.052.0906 1.541-.0363l.11-.0285v-.6368c0-.436-.01-.6368-.032-.6368-.018 0-.156.015-.308.0332-.336.0401-.649.002-.854-.1043-.163-.0839-.239-.1621-.333-.3442l-.069-.1335-.009-2.1732-.008-2.1734h1.613v-1.3648H128.276v-2.3735h-1.372l-.01.7937Zm-83.3535 1.133v1.7523l.9152-.0013c.5034-.0007 1.0471-.0125 1.2083-.0264.6465-.0553 1.1373-.3281 1.4539-.8082.2944-.4465.323-1.2597.0618-1.757-.1282-.244-.4534-.5548-.7103-.6788-.4285-.2069-.4433-.2088-1.7501-.2215l-1.1788-.0114v1.7523Zm27.547.229c-.4385.0357-.9003.1609-1.2497.3384-1.0296.5235-1.7261 1.4403-2.0101 2.6462-.0733.3114-.0786.3792-.0789 1.0161-.0004.6068.0072.7165.0677.9903.1783.8064.4787 1.3949.982 1.924.6557.689 1.5207 1.0736 2.5284 1.1243 1.247.0626 2.4366-.5051 3.085-1.4723.1882-.2806.4772-.8995.4349-.9314-.0276-.0207-1.2593-.4384-1.2658-.4291-.004.0059-.0455.1038-.0923.2178-.2539.6185-.6997 1.0267-1.3189 1.2078-.1957.0572-.3007.068-.6576.0675-.4897-.0006-.6712-.0395-1.0399-.2229-.6726-.3346-1.1257-1.016-1.2029-1.809l-.0201-.2072h5.6251l.0198-.2299c.0258-.2997-.0265-.9853-.105-1.3752-.2269-1.1277-.8387-2.0078-1.7079-2.4568-.2508-.1296-.6666-.2766-.9248-.327-.1727-.0338-.7964-.0936-.8933-.0859-.0322.0027-.1113.0091-.1757.0143Zm22.2431.0401c-.2491.0427-.5851.1482-.7678.2409-.3703.1879-.7413.5117-.9454.8249l-.0856.1314-.0081-.5097-.008-.5098h-1.4631v7.5954h1.4938v-2.3533c0-1.513.011-2.4161.0307-2.5293.1401-.8012.5804-1.3334 1.2476-1.5085.3969-.104.9979-.039 1.3607.1472.2303.1183.4772.3837.5969.6421.2021.438.1993.3876.2124 3.1318l.0121 2.47H96.4667v-2.5293c0-1.6618-.0112-2.6209-.0318-2.7964-.0898-.742-.3404-1.3092-.7734-1.752-.362-.3707-.7781-.5847-1.3243-.6811-.2619-.0462-.7772-.0535-1.0066-.0143Zm14.8724.0626c-1.556.1519-2.732 1.2942-3.028 2.9445-.059.328-.066 1.0606-.012 1.3837.135.8173.448 1.4779.941 1.9879.29.3007.48.4472.822.6317.766.4148 1.677.5124 2.51.2693.478-.1393.947-.4504 1.205-.7993.072-.0967.143-.1893.158-.2056.014-.0174.019.3141.012.8011-.011.6379-.026.8755-.062 1.0235-.208.8259-.627 1.2769-1.386 1.4901-.193.054-.308.0642-.741.0653-.488.0013-.524-.0026-.746-.0819-.314-.1118-.538-.2544-.774-.4933-.246-.2504-.45-.6394-.523-1.0024-.027-.1347-.059-.2447-.07-.2447-.046 0-1.384.3278-1.398.3426-.009.0089.008.1318.036.2731.18.8857.722 1.6174 1.533 2.0716.574.3211 1.185.466 1.957.4641.919-.0022 1.651-.2062 2.278-.6341.539-.3682 1.001-1.0429 1.207-1.761.181-.6339.171-.3872.182-4.5763l.011-3.8348h-1.467v1.0156l-.119-.1805c-.362-.5496-.993-.879-1.827-.9539-.356-.0319-.333-.032-.699.0037Zm-50.2137 2.7335c.0084 1.7748.0231 2.6719.0454 2.7848.2106 1.0628.7166 1.7763 1.5318 2.1601.4252.2003.6971.2553 1.2403.2506.4038-.0034.5077-.0146.7517-.0808.1556-.0422.3562-.1096.4456-.1498.3584-.1605.7201-.4544.9051-.7357l.0722-.1099.0195.3028c.0107.1664.027.3594.0363.4288l.0169.1261h1.4332l-.0168-.0816c-.0562-.2733-.0749-1.3233-.0753-4.2427l-.0004-3.2711h-1.4919l-.0083 2.5591-.0083 2.5589-.086.2497c-.2567.7452-.8239 1.1299-1.6654 1.1299-.8028 0-1.3569-.435-1.5815-1.2418-.062-.2228-.0633-.2708-.0725-2.7413l-.0094-2.5145h-1.4947l.0125 2.6184Zm42.2557 1.1793v3.7977H101.71v-7.5954H100.245v3.7977Zm-29.3186-2.6596c-.4432.1055-.7369.2616-1.0131.5381-.3231.3234-.5499.7711-.5901 1.1647l-.016.1558h4.0523l-.0186-.1558c-.1017-.8506-.5791-1.4306-1.3606-1.6531-.2773-.0789-.8233-.1046-1.0539-.0497Zm37.4136.0496c-.617.112-1.146.5201-1.428 1.1008-.215.4432-.261.6614-.262 1.2571-.001.4205.009.5472.061.7627.248 1.0089.936 1.5963 1.926 1.647 1.051.0536 1.833-.5144 2.142-1.5551.109-.37.131-1.049.047-1.4644-.134-.6552-.429-1.1292-.903-1.4499-.323-.2197-.608-.3037-1.066-.3159-.202-.0053-.434.0027-.517.0177Zm-64.7995 3.251v1.7982l1.2228-.0157c1.2704-.0164 1.4188-.0294 1.7747-.1554.5393-.1908.9213-.5774 1.082-1.0949.0814-.262.0852-.7576.0081-1.0521-.1802-.6882-.6948-1.1218-1.4809-1.2473-.1073-.0171-.7178-.0305-1.3986-.0306l-1.2081-.0003v1.7981Z"/><path d="M7.77509 3.80094C10.6667 1.6349 14.1474.415765 17.7678.300945c.7538-.023914 2.4328-.017179 2.4164.009702-.01.016317-.0429.029669-.0731.029669-.1034 0-1.3316.324374-1.8601.491234-2.1506.67901-4.1762 1.74149-5.9009 3.09509-1.4608 1.14649-2.76944 2.5383-3.78018 4.02034-1.62455 2.38202-2.6864 5.11412-3.08717 7.94312-.15107 1.0664-.17623 1.4667-.17703 2.8154-.0009 1.5508.02469 1.831.2707 2.9647.01406.0648-.00302.0575-.17184-.074-.1031-.0803-.39834-.3264-.65609-.547-.25775-.2204-.56767-.4824-.68873-.5821-.80347-.6621-1.78567-2.0006-3.112795-4.2419l-.195012-.3294.059488-.4124c.277019-1.92.932379-3.9399 1.837549-5.66379 1.24822-2.37704 2.98165-4.41232 5.1261-6.01867ZM26.9916 3.18657c-.2119-.25133-.5715-.6472-.7991-.87975-.2276-.23256-.3954-.42279-.373-.42279.0703 0 .9612.47987 1.5109.81394 4.7569 2.89065 7.9202 7.92563 8.4918 13.51633.4221 4.1274-.5545 8.1752-2.8097 11.6452-1.1337 1.7445-2.524 3.2322-4.247 4.5444-3.0617 2.3318-6.9192 3.5899-10.7347 3.5009-2.1142-.0494-4.0109-.4295-5.9447-1.1914-.6755-.2662-1.8747-.8271-1.8411-.8612.0063-.0063.1691.0147.3619.0467.5876.0979 1.4637.2004 2.0345.2381.7793.0514 2.0111-.0093 3.0901-.1522 3.9125-.5186 7.5802-2.3673 10.4581-5.2716 2.683-2.7075 4.4548-6.2032 5.094-10.0504.3177-1.9117.3378-3.9523.0576-5.8531-.5303-3.59698-1.9869-6.81959-4.3496-9.62313Z"/><path d="M.779925 19.4028c-.016578-.2608-.030169-.4843-.030169-.4969 0-.0515.034855-.0117.178697.2042.446317.67.959447 1.3102 1.646287 2.0541 1.50456 1.6294 3.12563 2.8559 5.04347 3.816.76611.3835 1.14819.5491 1.91738.831 1.38051.5059 2.90331.8498 4.46781 1.009.5211.053 2.0222.1105 2.3139.0886.1127-.0084.4291-.0294.7029-.0466 1.6099-.1012 3.0233-.3805 4.5692-.9027.9127-.3084 1.4822-.5462 2.3432-.9786 1.6209-.814 3.074-1.8531 4.3203-3.0892.2658-.2636.5096-.4878.5419-.4982.0322-.0105.0981-.0789.1463-.152.0737-.1116.1319-.1658.1319-.1229 0 .0056-.0907.2359-.2016.5118-.7686 1.9126-1.5775 3.3414-2.6217 4.6304-.3606.4451-1.734 1.8256-2.2251 2.2366-1.1299.9455-2.0589 1.5553-3.3431 2.1942-1.8116.9013-3.6536 1.4425-5.6677 1.6656-1.038.1149-2.7585.1054-3.8662-.0214-1.56466-.1789-3.07469-.5665-4.34478-1.1151-.71011-.3067-.75797-.3376-1.14987-.742-2.88738-2.98-4.6064-6.8872-4.873025-11.0759Z"/></g><defs><clipPath id="clip0_8325_2239"><path fill="#fff" d="M.749756.097778h130v36h-130z"/></clipPath></defs></svg>