<svg width="112" height="37" viewBox="0 0 112 37" fill="none" xmlns="http://www.w3.org/2000/svg"><g clip-path="url(#clip0_8325_2234)"><path d="M52.4545 26.3549c-1.9785 0-3.552-.5666-4.7204-1.6997-1.1684-1.1489-1.7527-2.8013-1.7527-4.9574v-3.8714c0-2.1561.5843-3.8007 1.7527-4.9338 1.1684-1.14888 2.7419-1.72329 4.7204-1.72329 1.9629 0 3.4741.5508 4.5335 1.65249 1.0593 1.0859 1.589 2.5809 1.589 4.4852v.1417h-2.3602v-.2125c0-1.1489-.3115-2.0852-.9347-2.8092-.6076-.7239-1.5501-1.0859-2.8276-1.0859-1.2775 0-2.2823.3935-3.0145 1.1803-.7167.7869-1.075 1.8728-1.075 3.2577v3.966c0 1.3849.3583 2.4708 1.075 3.2577.7322.7868 1.737 1.1803 3.0145 1.1803 1.2775 0 2.22-.362 2.8276-1.0859.6232-.7397.9347-1.6761.9347-2.8092v-.4013h2.3602v.3305c0 1.9043-.5297 3.4072-1.589 4.5088-1.0594 1.0859-2.5706 1.6289-4.5335 1.6289Zm7.4212-.3305V14.41h2.2668v11.6144h-2.2668Zm1.1217-13.2433c-.4516 0-.8337-.1495-1.145-.4485-.2962-.299-.444-.6846-.444-1.1567 0-.4722.1478-.8499.444-1.1331.3113-.29908.6934-.44857 1.145-.44857.4674 0 .8489.14949 1.1451.44857.2962.2832.444.6609.444 1.1331 0 .4721-.1478.8577-.444 1.1567-.2962.299-.6777.4485-1.1451.4485Zm3.153 13.2433V14.41h2.22v1.3928h.3505c.2027-.5036.5065-.8656.9114-1.0859.4054-.2361.9271-.3541 1.5657-.3541h1.3787v2.0773h-1.4722c-.7945 0-1.4407.2203-1.9396.661-.4983.4407-.7478 1.1174-.7478 2.0302v6.8931h-2.2667Zm12.2503.3305c-1.1065 0-2.1113-.2361-3.0145-.7082-.888-.4721-1.5891-1.1567-2.1032-2.0538-.5141-.897-.7711-1.9751-.7711-3.2341v-.2833c0-1.259.257-2.3292.7711-3.2105.5141-.897 1.2152-1.5816 2.1032-2.0537.9032-.4879 1.908-.7318 3.0145-.7318 1.1059 0 2.0407.2046 2.8042.6137.7788.4092 1.4021.9522 1.8695 1.6289.4674.6767.7712 1.4164.9114 2.219l-2.22.4721c-.0626-.5351-.2261-1.015-.4908-1.44-.2494-.4406-.6157-.7868-1.0983-1.0386-.4674-.2676-1.044-.4014-1.7293-.4014-.701 0-1.332.1574-1.8928.4722-.5456.3147-.9815.7711-1.3086 1.3692-.312.5823-.4674 1.2983-.4674 2.1482v.2124c0 .8341.1554 1.5502.4674 2.1482.3271.5823.763 1.0387 1.3086 1.3692.5608.3147 1.1918.4721 1.8928.4721 1.0434 0 1.838-.2754 2.3836-.8262.5451-.5508.888-1.2433 1.0282-2.0774l2.1967.4958c-.1718.8026-.4989 1.5422-.9815 2.219-.4674.6767-1.0907 1.2197-1.8695 1.6288-.7635.3935-1.6983.5902-2.8042.5902Zm11.2817-.118c-.857 0-1.6282-.1889-2.3135-.5666-.6858-.3935-1.2233-.9521-1.6124-1.6761-.3897-.7239-.5842-1.5895-.5842-2.5967V14.41h2.2667v6.8223c0 1.0387.2571 1.8098.7712 2.3134.5141.4879 1.2227.7318 2.1265.7318 1.0125 0 1.8303-.3383 2.4537-1.0151.6228-.6924.9347-1.6918.9347-2.998V14.41h2.2668v11.6144h-2.22v-1.7941h-.3506c-.2336.4879-.6391.9443-1.2151 1.3692-.5609.4249-1.4021.6374-2.5238.6374Zm8.325-.2125V14.41h2.2667v11.6144h-2.2667Zm1.1217-13.2433c-.4516 0-.8337-.1495-1.1451-.4485-.2962-.299-.444-.6846-.444-1.1567 0-.4722.1478-.8499.444-1.1331.3114-.29908.6935-.44857 1.1451-.44857.4673 0 .8488.14949 1.145.44857.2962.2832.444.6609.444 1.1331 0 .4721-.1478.8577-.444 1.1567-.2962.299-.6777.4485-1.145.4485Zm7.4529 13.2433c-.701 0-1.254-.2046-1.659-.6138-.389-.4091-.585-.96-.585-1.6524v-7.4125h-3.2244V14.41h3.2244v-3.9187h2.267V14.41h3.529v1.9357h-3.529v7.0348c0 .4721.226.7082.678.7082h2.43v1.9357h-3.131Z" fill="#6F6F6F"/><path d="M15.8005 11.2988c-.3907.16-.8765.3947-1.3939.7361-.6125.4054-1.0138.7894-1.1617.9388-.2746.2667-.7603.7574-1.2039 1.5362-.3907.704-.5596 1.3228-.623 1.5788-.2112.8534-.1796 1.5469-.1584 2.0056.0211.5227.0739 1.4509.5386 2.5389.454 1.0776 1.0666 1.7603 1.2778 1.9737.6125.6507 1.2038 1.0027 1.5418 1.1948.792.4587 1.4573.6614 1.6579.7147.4858.1387.8871.1814 1.0983.2027.4753.0427.8343.032.9294.0213.2851-.0106.4963-.0426.6969-.0746.3802-.0534.6759-.1174.7815-.1387.3484-.0853.3696-.1067.7497-.1921.3486-.0746.3591-.0639.602-.1173.3696-.0853.6336-.192.9399-.3093.3801-.1494.6547-.2774.8448-.3734.0951-.0427.4964-.2454.8448-.4481.8871-.5121 1.4996-1.1415 1.7531-1.3975.3062-.3094.718-.7788 1.1193-1.3975.433-.6614.6865-1.2375.8449-1.6109.1372-.3093.2112-.5227.2429-.5974.1584-.4374.2429-.7788.3274-1.1415.0739-.288.1583-.6934.2428-1.2374.0317-.2454.0951-.7041.1162-1.2802.0423-.9921-.0422-1.7389-.1162-2.4003-.0739-.6614-.1584-1.0988-.2112-1.3335-.0316-.1707-.095-.416-.1689-.71475-.2535-.93878-.5703-1.71756-.9399-2.60298-.1373-.34135-.4224-.97076-1.0349-1.84555-.433-.61874-.9927-1.42951-1.9431-2.32562-.1795-.17068-.9927-.91744-2.1754-1.64286-.7076-.43739-1.3201-.714758-1.6264-.853447-.3484-.160017-.5702-.245361-.7075-.288032-.4435-.16002-.8448-.2667-1.1405-.330708.4963-.021336.9082 0 1.2355 0 .433.032004.7709.074676 1.0666.117348.4858.064008.8765.138684 1.0983.192023.9293.192024 1.6686.426717 2.0909.565406.4964.17069 1.1406.41605 1.8798.75742.4224.20269 1.1088.54407 1.9008 1.04547 1.6158 1.03479 2.6824 2.10159 3.58 3.01903.7815.80012 1.1828 1.2055 1.6897 1.87758 1.13 1.52551 1.6791 2.93367 2.0065 3.79777.4224 1.1201.6547 2.0483.7709 2.571.5068 2.3043.4329 4.1712.3801 4.9073-.0316.4694-.1795 2.411-1.0138 4.8005-.8025 2.315-1.848 3.8832-2.1648 4.3526-1.6369 2.4003-3.4321 3.7444-3.8968 4.0751-1.3623.9922-2.5451 1.5149-3.4849 1.9203-2.45 1.0561-4.4037 1.3442-4.8367 1.4082-.9504.128-1.753.16-2.3232.16-.9716-.2987-1.7636-.6401-2.3656-.9175-.6864-.32-1.4573-.6934-2.3655-1.3548-.7709-.5654-1.2989-1.0988-1.6157-1.4082-.7181-.7254-1.1722-1.3442-1.2778-1.4722-.6548-.8854-1.03497-1.6322-1.29897-2.1656-.41181-.8214-.90816-1.8135-1.2144-3.211-.28515-1.2695-.28515-2.2616-.27458-3.1044 0-.9388.02109-2.2936.52801-3.9578.22177-.7361.52801-1.7175 1.27779-2.8377.74975-1.1201 1.57355-1.8029 1.97485-2.1122 1.1299-.8748 2.1965-1.2482 2.8407-1.4616.5069-.1706.9504-.288 1.2672-.352Z" fill="#fff"/><path d="M16.7824 11.1003c-.6125.1173-1.4891.3734-2.3761.9281-.6231.3947-1.035.8107-1.1617.9387-.3273.3308-.5491.6294-.7075.8535-.1901.2454-.3273.4374-.4858.7254-.1795.3414-.2851.6294-.3907.8855-.0528.1387-.1267.352-.2112.6401-.0422.1706-.1268.4907-.1795.8961-.0528.4373-.0423.7574-.0212 1.1201.0212.352.0423.8428.1901 1.4508.1162.4908.264.8641.3485 1.0882.4752 1.1308 1.13 1.8348 1.2778 1.9735.4435.4588.8976.7788 1.0666.8961.1795.1281.338.2241.4013.2561.359.2133.6548.352.8343.4267.4646.2027.8448.3094.9399.3307.2112.0534.5913.1494 1.0666.1921.2534.0213.4435.0319.5174.0319.0739 0 .4224 0 .866-.0426.1267-.0107.2323-.032.3167-.0427.2535-.0427.4331-.0747.5809-.1067.0422 0 .2429-.0533.3802-.0853.0633-.0213.1373-.0427.1373-.0427.0422-.0107.0844-.032.1055-.032.0528 0 .1162-.0214.2113-.0427h.0422c.264-.064.3379-.064.4646-.0853 0 0 .074-.0107.1479-.032.4013-.0961.8871-.288.8871-.288.2006-.0854.5069-.2028.9082-.3947.2534-.1174.5491-.2668.8448-.4482.7392-.448 1.225-.9494 1.7002-1.4401.359-.3734.6019-.6827.7709-.8855.3168-.384.4753-.5867.6653-.9067.2218-.3628.3591-.6721.5808-1.1735.0951-.2134.1901-.4587.2218-.5547 0-.0214.0106-.0321.0106-.0427.1583-.4374.2429-.7788.3273-1.1415.074-.288.1584-.6934.2429-1.2374.0317-.2454.0951-.7042.1162-1.2802.0422-.9922-.0422-1.7389-.1162-2.4003-.0739-.6614-.1584-1.0988-.2112-1.3335-.0317-.1707-.095-.4161-.1689-.71476-.2535-.93878-.5703-1.71756-.9399-2.60298-.3485-.74679-.7181-1.36552-1.0349-1.84557-.5703-.86411-1.0983-1.45085-1.2673-1.63221-.2006-.22403-.4224-.44805-.6758-.69341-.1796-.17069-.9927-.91745-2.1755-1.64287-.7076-.43739-1.32-.714755-1.6263-.853443-.4013-.181353-.623-.256029-.7075-.288033-.5703-.202691-1.0666-.298703-1.4151-.341375.6019-.021336 1.1088 0 1.4996.021336.4752.032003.8448.085344 1.0666.117348.2006.032004.5702.085343 1.0982.192023.6548.128015 1.2567.256032 2.0276.490728.1901.05334.9821.309366 1.9854.768096.4541.20269 1.0243.50139 1.6685.88544.9821.5974 1.7741 1.19481 2.3444 1.68554.7075.60807 1.2144 1.1308 1.4679 1.40817.2746.28804.9188 1.01348 1.6263 2.03759 1.1617 1.68551 1.7741 3.17908 2.0065 3.79778.4224 1.1202.6547 2.0483.7708 2.571.4541 2.0589.4436 3.7978.3802 4.9073-.1267 2.1975-.6336 3.8831-.9504 4.8006-.3696 1.0561-1.0349 2.6456-2.2177 4.3418-.2851.4054-.9715 1.3442-2.017 2.3897-.6864.6934-1.3623 1.2481-1.9431 1.6855-1.6474 1.2375-3.0625 1.8669-3.3687 1.9949-.9927.4267-1.7847.6614-2.3445.8108-1.3094.3627-2.3233.5014-2.6084.544-.7075.096-1.5523.16-2.5133.1387-.9927-.384-1.7847-.7254-2.3338-.9814-.4013-.1814-.7499-.3521-1.1828-.5974-.4964-.2881-.8554-.5441-1.0138-.6614-.2218-.1601-.4964-.3734-.792-.6401-.2958-.2667-.507-.4801-.6759-.6508-.3168-.3307-.8237-.8854-1.3728-1.6322-.1057-.1493-.264-.3627-.4541-.6507-.39077-.5975-.64426-1.1202-.84488-1.5149-.41186-.8214-.90821-1.8135-1.21445-3.2111-.28516-1.2695-.28516-2.2509-.27458-3.1043 0-1.1415.01057-2.4003.52801-3.9579.48577-1.4935 1.19336-2.5069 1.45737-2.8696 0 0 .77083-1.0562 1.77413-1.867.3062-.2453.6759-.512.6759-.512.3168-.224.5596-.3734.6758-.448.1901-.1174.3274-.1921.3908-.2347.1267-.0747.2323-.128.3801-.2028.0423-.0213.2324-.1066.5069-.2133.169-.064.2957-.096.5597-.1814.4435-.128.6759-.2026.7604-.224.2745-.0746.6653-.16 1.1616-.2347l.0106.0214Z" fill="#6F6F6F"/><path d="M20.1509 24.4332c.7604-.2667 1.3306-.608 1.7213-.8747.264-.1814.6653-.4801 1.0772-.9175.2852-.2881.4541-.5227.5069-.5868.2006-.2667.3274-.4907.4436-.6933.1161-.2028.3062-.5335.4857-1.0135.0634-.1707.1479-.4054.2218-.6828.0211-.0853.1056-.4161.1689-.8747.0212-.1814.0634-.4908.0739-.8748.0106-.7255-.1161-1.2908-.2111-1.6855-.0529-.2347-.1268-.5335-.2746-.9068-.0423-.1067-.2112-.5548-.5386-1.0775-.2323-.3841-.4646-.6614-.5703-.7894-.1055-.1281-.2006-.2348-.2428-.2774-.0423-.0533-.2218-.2454-.4013-.416-.264-.2454-.4858-.3948-.866-.6508-.1901-.128-.3696-.2453-.6125-.3734-.2217-.1173-.4013-.192-.4752-.224-.0422-.0213-.2112-.0854-.4963-.1814-.169-.0533-.4225-.1387-.7393-.2026-.2112-.0427-.7181-.1494-1.3728-.1494-.3379 0-.6019.0213-.7075.032-.2324.0213-.4225.0533-.602.096-.5175.096-.9398.1813-1.4573.3521-.8026.256-1.3729.5867-1.8058.832-.5598.3201-.9716.6082-1.1406.7362-.2428.1813-.5702.4373-.9293.7681-.4119.384-.7392.7467-.9715 1.0241-.46471.5547-.79204 1.0668-1.00323 1.4295-.10563.1813-.44353.7574-.76035 1.5682-.31682.7894-.47526 1.4294-.52801 1.6642-.13729.5974-.1901 1.0454-.20068 1.1628-.05281.512-.05281.8961-.05281 1.2375 0 .4054.02115 1.0561.12671 1.8668.06339.5228.15844 1.2802.44354 2.2297.32739 1.0774.69702 1.8242 1.1194 2.6243.21125.4054.48573.9067.87653 1.4829.2218.3199.4013.5547.4646.6507 0 0 0 .0107.0212.0213.5597.7255.7814.9495.7814.9495.2218.2453.4647.4587.9505.8854l.0211.0213c1.0455.9282 2.1543 1.5682 2.1649 1.5682.4118.2347.7181.3841 1.3412.6721.1372.064.6124.288 1.2566.5547.2535.1067.4647.1921.6336.2561-.2428 0-.5702 0-.9504-.0213-.433-.032-.7603-.0747-1.0666-.1174-.4858-.064-.8765-.1387-1.0983-.192-.9293-.1921-1.6685-.4268-2.0909-.5654-.4964-.1707-1.1405-.4161-1.8798-.7575-.4224-.2026-1.10881-.544-1.90082-1.0454-1.75304-1.1202-2.95691-2.3256-3.57997-3.019-.72866-.8002-1.28837-1.5576-1.6791-2.155-.91875-1.3975-1.47845-2.6563-1.80582-3.5097-.25344-.6615-.53857-1.5362-.7709-2.5817-.432978-1.9949-.454099-3.7018-.380176-4.9073.126726-2.1762.623056-3.8618.960986-4.8112.32738-.9388.91876-2.37896 1.95367-3.96851 1.33061-2.01624 2.81962-3.39241 3.93904-4.26718 1.37284-1.0668 2.65059-1.72822 3.49549-2.11227.887-.40538 2.5873-1.088129 4.8366-1.408167 1.0349-.138684 1.922-.170688 2.5873-.170688.0845.032004.2851.096012.3802.128015.1795.064008.2217.074677.2851.096012.0528.021336.2007.074676.3696.149352.1795.074676.264.10668.3802.170688.0845.042671.2323.117347.4118.202691h.0212c.0422.021334.1267.053339.2745.138683.0845.042674.2324.117344.4119.213364.359.19202.6864.39471.8554.50139.5385.33071.9715.67208 1.0455.72542.4752.37338.8554.71476 1.1194.97079.1267.12802.454.45872.8659.94945.3274.38405.9821 1.18414 1.5946 2.28295.8343 1.50415 1.1405 2.8057 1.4574 4.14981.1795.7575.2745 1.5042.2851 1.5575.0528.3734.095.6828.1162 1.1095.021.3307.0422 1.0242-.0529 1.8776-.0316.256-.095.7574-.2429 1.3655-.095.3947-.5068 1.9522-1.5946 3.6377-.5386.8215-.9715 1.2695-1.0877 1.3975-.264.2667-.528.4908-.7815.7042-.4118.3413-.6124.48-.7286.5547-.1268.0747-.2535.1493-.5069.2773-.264.1387-.4858.2667-.7287.3734-.1267.0641-.528.2561-1.0772.4374-.4118.1387-.9504.2881-1.5946.4054h.0106Z" fill="url(#paint0_radial_8325_2234)"/></g><defs><radialGradient id="paint0_radial_8325_2234" cx="0" cy="0" r="1" gradientUnits="userSpaceOnUse" gradientTransform="matrix(20 0 0 21 18.121 19.0653)"><stop offset=".57" stop-color="#231F20"/><stop offset=".71" stop-color="#242021"/><stop offset=".76" stop-color="#2B2728"/><stop offset=".8" stop-color="#373334"/><stop offset=".83" stop-color="#474445"/><stop offset=".85" stop-color="#5D5A5B"/><stop offset=".88" stop-color="#787576"/><stop offset=".9" stop-color="#979696"/><stop offset=".92" stop-color="#BCBBBC"/><stop offset=".93" stop-color="#E5E4E5"/><stop offset=".94" stop-color="#fff"/></radialGradient><clipPath id="clip0_8325_2234"><path fill="#fff" d="M.855957.056885h111v36h-111z"/></clipPath></defs></svg>