<svg width="400" height="80" viewBox="0 0 400 80" fill="none" xmlns="http://www.w3.org/2000/svg">
<path d="M110.285 54.7498C116.285 54.7498 120.845 51.5098 122.765 46.2698L117.365 44.3098C116.245 47.4298 113.725 49.2698 110.285 49.2698C105.565 49.2698 102.525 45.8298 102.525 40.1098C102.525 34.4298 105.565 30.9898 110.285 30.9898C113.725 30.9898 116.245 32.8298 117.365 35.9498L122.765 33.9898C120.845 28.7498 116.285 25.5098 110.285 25.5098C102.285 25.5098 96.8047 31.3898 96.8047 40.1098C96.8047 48.8698 102.285 54.7498 110.285 54.7498Z" fill="#6F6F6F"/>
<path d="M135.243 54.4692C140.963 54.4692 145.243 50.1092 145.243 44.1892C145.243 38.2292 141.003 33.9492 135.243 33.9492C129.403 33.9492 125.203 38.2292 125.203 44.1892C125.203 50.1492 129.443 54.4692 135.243 54.4692ZM135.243 49.6692C132.363 49.6692 130.683 47.6692 130.683 44.1892C130.683 40.7092 132.323 38.7492 135.243 38.7492C138.083 38.7492 139.723 40.7092 139.723 44.1892C139.723 47.6692 138.083 49.6692 135.243 49.6692Z" fill="#6F6F6F"/>
<path d="M148.965 54.0692H154.445V45.8692C154.445 43.6292 154.565 42.6692 154.845 41.9092C155.445 40.1892 156.805 39.3892 158.285 39.3892C159.245 39.3892 160.245 39.7492 160.845 40.1092L163.485 35.1492C162.125 34.2692 160.925 33.9492 159.605 33.9492C157.605 33.9492 155.565 35.1892 154.485 37.1092V34.3492H148.965V54.0692Z" fill="#6F6F6F"/>
<path d="M172.524 54.4695C174.484 54.4695 176.564 53.8295 177.964 51.5095V54.0695H183.444V26.1895H177.964V36.9495C176.724 34.8295 174.644 33.9495 172.524 33.9495C168.004 33.9495 164.324 37.6695 164.324 44.1895C164.324 50.0695 167.364 54.4695 172.524 54.4695ZM174.164 49.4295C171.484 49.4295 169.804 47.4695 169.804 44.1895C169.804 40.9495 171.484 38.9495 174.164 38.9495C176.804 38.9495 178.444 40.9895 178.444 44.1895C178.444 47.4295 176.804 49.4295 174.164 49.4295Z" fill="#6F6F6F"/>
<path d="M187.887 31.4695H193.607V26.1895H187.887V31.4695ZM188.007 54.0695H193.487V34.3495H188.007V54.0695Z" fill="#6F6F6F"/>
<path d="M204.885 54.4692C206.805 54.4692 208.805 53.7492 210.245 51.6692L210.605 54.0692H215.645V41.5892C215.645 36.8692 212.365 33.9492 206.885 33.9492C203.445 33.9492 200.645 34.7492 197.685 36.9092L200.245 40.7092C201.885 39.4292 204.325 38.5492 206.405 38.5492C208.645 38.5492 210.205 39.4692 210.205 41.5892V41.9892H204.605C202.805 41.9892 201.205 42.3092 199.925 43.0292C198.325 43.9492 197.285 45.6292 197.285 47.9092C197.285 51.8692 200.565 54.4692 204.885 54.4692ZM205.685 50.0692C203.925 50.0692 202.805 49.2292 202.805 47.9092C202.805 47.3092 203.045 46.8292 203.485 46.5092C203.965 46.1892 204.685 46.0292 205.405 46.0292H210.205C210.205 48.3892 208.125 50.0692 205.685 50.0692Z" fill="#6F6F6F"/>
<path d="M224.806 54.4695C225.686 54.4695 226.846 54.3095 228.046 53.8695V49.1895C227.566 49.3095 227.126 49.4295 226.686 49.4295C225.926 49.4295 225.406 49.0695 225.406 48.1095V26.1895H219.926V49.1895C219.926 52.8695 222.046 54.4695 224.806 54.4695Z" fill="#6F6F6F"/>
<path d="M251.086 54.509C256.406 54.509 260.166 51.069 260.166 46.349C260.166 41.949 257.086 39.909 252.246 38.069C248.366 36.629 246.166 35.509 246.166 32.909C246.166 30.549 248.086 28.829 250.846 28.829C253.126 28.829 254.886 30.029 256.126 32.189L258.926 30.469C257.246 27.349 254.486 25.709 250.966 25.709C245.966 25.709 242.646 28.789 242.646 32.989C242.646 37.229 245.726 39.229 250.366 40.989C254.086 42.429 256.686 43.589 256.686 46.549C256.686 49.389 254.286 51.349 251.206 51.349C247.606 51.349 244.966 49.389 244.366 45.629L240.926 46.469C241.726 51.349 245.486 54.509 251.086 54.509Z" fill="#6F6F6F"/>
<path d="M265.486 62.1896H269.166L280.526 34.3496H276.846L271.046 49.7096L265.286 34.3496H261.566L269.246 53.1096L265.486 62.1896Z" fill="#6F6F6F"/>
<path d="M290.605 54.3893C295.125 54.3893 298.085 51.9493 298.085 48.2293C298.085 43.7893 294.125 42.8693 290.805 42.0693C288.045 41.4293 286.605 40.8293 286.605 39.1493C286.605 37.6693 288.165 36.7493 290.245 36.7493C292.325 36.7493 294.125 37.5493 295.205 39.3893L297.365 37.7893C295.965 35.3093 293.325 34.0293 290.365 34.0293C286.245 34.0293 283.485 36.2293 283.485 39.4693C283.485 43.2293 286.805 44.3093 289.845 45.0693C292.485 45.7493 294.765 46.3493 294.765 48.5893C294.765 50.4293 293.165 51.5493 290.645 51.5493C287.885 51.5493 285.805 50.1093 284.805 48.0693L282.445 50.0693C283.765 52.3493 286.565 54.3893 290.605 54.3893Z" fill="#6F6F6F"/>
<path d="M309.446 54.3904C310.406 54.3904 311.486 54.2304 312.486 53.8704V51.2304C311.646 51.4704 310.846 51.5904 310.326 51.5904C308.526 51.5904 307.926 50.3504 307.926 48.1504V36.9904H312.486V34.3504H307.926V27.1504L304.486 29.0704V34.3504H300.406V36.9904H304.486V49.0304C304.486 52.8304 306.606 54.3904 309.446 54.3904Z" fill="#6F6F6F"/>
<path d="M324.646 54.3893C327.886 54.3893 330.246 53.3493 332.446 51.0293L330.086 48.9493C328.566 50.5893 326.966 51.3093 324.686 51.3093C321.086 51.3093 318.926 49.0693 318.766 45.2293H332.966C333.046 44.6693 333.086 43.7093 333.086 43.4693C333.086 38.6693 330.406 34.0293 324.326 34.0293C318.366 34.0293 315.406 38.8693 315.406 44.3493C315.406 49.8293 318.446 54.3893 324.646 54.3893ZM318.726 42.7093C318.966 39.5093 320.926 36.8693 324.406 36.8693C328.086 36.8693 329.846 39.6293 329.846 42.2293V42.7093H318.726Z" fill="#6F6F6F"/>
<path d="M337.926 54.0693H341.326V43.4693C341.326 39.1893 343.046 36.9493 345.966 36.9493C348.606 36.9493 350.046 38.7893 350.046 42.5893V54.0693H353.446V43.4693C353.446 39.1493 355.126 36.9493 358.006 36.9493C361.006 36.9493 362.166 39.1893 362.166 42.8693V54.0693H365.526V42.0693C365.526 37.7093 363.646 34.0293 358.766 34.0293C355.926 34.0293 354.046 35.2693 352.766 37.5493C351.686 35.1893 349.686 34.0293 346.966 34.0293C344.606 34.0293 342.526 35.1093 341.326 37.5493V34.3493H337.926V54.0693Z" fill="#6F6F6F"/>
<path d="M377.566 54.3893C382.086 54.3893 385.046 51.9493 385.046 48.2293C385.046 43.7893 381.086 42.8693 377.766 42.0693C375.006 41.4293 373.566 40.8293 373.566 39.1493C373.566 37.6693 375.126 36.7493 377.206 36.7493C379.286 36.7493 381.086 37.5493 382.166 39.3893L384.326 37.7893C382.926 35.3093 380.286 34.0293 377.326 34.0293C373.206 34.0293 370.446 36.2293 370.446 39.4693C370.446 43.2293 373.766 44.3093 376.806 45.0693C379.446 45.7493 381.726 46.3493 381.726 48.5893C381.726 50.4293 380.126 51.5493 377.606 51.5493C374.846 51.5493 372.766 50.1093 371.766 48.0693L369.406 50.0693C370.726 52.3493 373.526 54.3893 377.566 54.3893Z" fill="#6F6F6F"/>
<path fill-rule="evenodd" clip-rule="evenodd" d="M49.2148 58.3958C59.3026 58.3958 67.4796 50.2188 67.4796 40.131C67.4796 30.0433 59.3026 21.8646 49.2148 21.8646C39.1253 21.8646 30.9484 30.0433 30.9484 40.131C30.9484 50.2188 39.1253 58.3958 49.2148 58.3958ZM49.2148 65.2894C63.1083 65.2894 74.3732 54.0262 74.3732 40.131C74.3732 26.2359 63.1083 14.9727 49.2148 14.9727C35.3197 14.9727 24.0547 26.2359 24.0547 40.131C24.0547 54.0262 35.3197 65.2894 49.2148 65.2894Z" fill="#6F6F6F"/>
<path fill-rule="evenodd" clip-rule="evenodd" d="M55.2842 4.44415L54.1476 11.2424C52.5656 10.979 50.9376 10.8411 49.2726 10.8411C47.6057 10.8411 45.9777 10.979 44.3957 11.2424L43.2591 4.44415C45.2141 4.11891 47.2239 3.94922 49.2726 3.94922C51.3195 3.94922 53.3292 4.11891 55.2842 4.44415ZM36.6041 6.2206L39.0169 12.6777C35.9342 13.8266 33.0936 15.4793 30.596 17.5404L26.1982 12.2287C29.2791 9.68688 32.7896 7.64176 36.6041 6.2206ZM21.3249 17.0932L26.6454 21.4839C24.5808 23.978 22.9246 26.815 21.7738 29.8924L15.3079 27.4832C16.7309 23.674 18.7778 20.1706 21.3249 17.0932ZM13.5279 34.1276C13.2009 36.0791 13.0312 38.0853 13.0312 40.1304C13.0312 42.1756 13.2009 44.18 13.5279 46.1332L20.3368 44.9984C20.0716 43.4182 19.9338 41.7938 19.9338 40.1304C19.9338 38.4671 20.0716 36.8409 20.3368 35.2624L13.5279 34.1276ZM15.3079 52.7777L21.7738 50.3684C22.9246 53.4458 24.5808 56.2811 26.6454 58.7752L21.3249 63.1659C18.7778 60.0903 16.7309 56.5851 15.3079 52.7777ZM26.1982 68.0304L30.596 62.7187C33.0936 64.7798 35.9342 66.4342 39.0169 67.5814L36.6041 74.0385C32.7896 72.6173 29.2791 70.574 26.1982 68.0304ZM43.2591 75.8149L44.3957 69.0185C45.9777 69.2819 47.6057 69.4197 49.2726 69.4197C50.9376 69.4197 52.5656 69.2819 54.1476 69.0185L55.2842 75.8149C53.3292 76.142 51.3195 76.3116 49.2726 76.3116C47.2239 76.3116 45.2141 76.142 43.2591 75.8149ZM61.941 74.0385L59.5265 67.5814C62.6092 66.4342 65.4497 64.7798 67.9474 62.7187L72.3469 68.0304C69.2642 70.574 65.7538 72.6173 61.941 74.0385ZM77.2185 63.1659L71.898 58.7752C73.9625 56.2811 75.6188 53.4458 76.7695 50.3684L83.2372 52.7777C81.8125 56.5851 79.7656 60.0903 77.2185 63.1659Z" fill="#6F6F6F"/>
</svg>
