<svg width="147" height="30" viewBox="0 0 147 30" fill="none" xmlns="http://www.w3.org/2000/svg"><g clip-path="url(#clip0_8325_2288)"><path d="M7.74597 22.5516c-4.07843 0-6.54846-3.074-6.54846-7.395 0-4.35 2.49875-7.53998 6.66335-7.53998 2.15414 0 3.96354.957 4.91134 2.69698V.859619h2.6711V22.2036h-2.4126l-.2298-2.581c-.9191 1.943-2.81467 2.929-5.05493 2.929Zm.5457-2.465c2.75723 0 4.45183-2.059 4.45183-5.017 0-2.9-1.6946-4.988-4.45183-4.988-2.75724 0-4.36564 2.088-4.36564 4.988 0 2.929 1.6084 5.017 4.36564 5.017Zm15.52703 2.465c-4.1359 0-6.9793-3.016-6.9793-7.424 0-4.437 2.7859-7.51098 6.8644-7.51098 3.9922 0 6.6059 2.78398 6.6059 6.98898v1.015l-10.8567.029c.2011 2.987 1.752 4.64 4.4231 4.64 2.0967 0 3.4753-.87 3.9348-2.494h2.5275c-.6893 3.045-3.0445 4.756-6.5197 4.756Zm-.1149-12.64398c-2.3552 0-3.8487 1.42098-4.1933 3.91498h8.0994c0-2.349-1.5223-3.91498-3.9061-3.91498Zm6.8928 8.17798h2.585c0 1.45 1.0914 2.32 2.8721 2.32 1.8956 0 2.987-.783 2.987-2.088 0-.957-.4595-1.537-1.9243-1.914l-2.47-.58c-2.4988-.609-3.6764-1.856-3.6764-3.944 0-2.60998 2.1828-4.26298 5.2847-4.26298 3.0732 0 5.0837 1.74 5.1412 4.43698h-2.585c-.0574-1.421-1.0052-2.31998-2.6423-2.31998-1.6946 0-2.6424.75398-2.6424 2.05898 0 .957.6893 1.595 2.068 1.943l2.47.609c2.3839.58 3.5614 1.682 3.5614 3.799 0 2.697-2.2977 4.408-5.6293 4.408-3.303 0-5.3997-1.769-5.3997-4.466ZM44.3612 4.65862c-.9765 0-1.7807-.812-1.7807-1.798 0-1.015.8042-1.798 1.7807-1.798.9765 0 1.7807.783 1.7807 1.798 0 .986-.8042 1.798-1.7807 1.798ZM43.04 22.2036V8.02262h2.6998V22.2036H43.04Zm4.1493-7.453c0-4.002 2.5562-7.13398 6.6346-7.13398 2.269 0 4.021 1.044 4.9114 2.81298l.201-2.40698h2.4126V21.6236c0 4.466-2.7285 7.308-7.0367 7.308-3.8199 0-6.4336-2.175-6.9506-5.771h2.6998c.3447 2.088 1.8957 3.306 4.2508 3.306 2.6424 0 4.3656-1.74 4.3656-4.437v-2.842c-.919 1.653-2.7572 2.639-4.9688 2.639-3.9922 0-6.5197-3.103-6.5197-7.076Zm2.6998-.058c0 2.668 1.6371 4.756 4.2795 4.756 2.7285 0 4.3944-1.972 4.3944-4.756 0-2.726-1.6084-4.69798-4.3657-4.69798-2.6998 0-4.3082 2.08798-4.3082 4.69798Zm16.4762 7.511h-2.6998V8.02262h2.4413l.2873 2.17498c.8903-1.62398 2.671-2.58098 4.6528-2.58098 3.7051 0 5.3996 2.291 5.3996 5.91598v8.671h-2.6998v-8.062c0-2.871-1.3212-4.031-3.3891-4.031-2.5275 0-3.9923 1.827-3.9923 4.582v7.511ZM83.3864 8.02262h2.068v-2.262c0-3.48 1.8956-4.901001 4.4518-4.901001.5169 0 1.1201.029001 1.6658.116V3.32462h-1.2063c-1.752 0-2.2115.899-2.2115 2.436v2.262h3.3316v2.29098h-3.3316v11.89h-2.6998v-11.89h-2.068V8.02262Zm7.6898 7.07598c0-4.379 3.1019-7.45298 7.3239-7.45298 4.1929 0 7.2949 3.07398 7.2949 7.45298s-3.102 7.453-7.2949 7.453c-4.222 0-7.3239-3.074-7.3239-7.453Zm2.7285 0c0 2.958 1.8669 5.017 4.5954 5.017 2.6999 0 4.5959-2.059 4.5959-5.017s-1.896-5.017-4.5959-5.017c-2.7285 0-4.5954 2.059-4.5954 5.017Zm12.3803.029c0-4.437 2.786-7.51098 6.893-7.51098 3.533 0 6.003 2.03 6.491 5.19098h-2.7c-.459-1.798-1.895-2.755-3.705-2.755-2.556 0-4.308 1.972-4.308 5.046 0 3.045 1.637 5.017 4.194 5.017 1.924 0 3.36-1.015 3.848-2.697h2.7c-.546 3.074-3.159 5.133-6.548 5.133-4.136 0-6.865-2.958-6.865-7.424Zm24.39-7.10498h2.671V22.2036h-2.412l-.288-2.146c-.804 1.479-2.671 2.494-4.739 2.494-3.274 0-5.112-2.233-5.112-5.713V8.02262h2.7v7.91698c0 3.045 1.292 4.205 3.36 4.205 2.47 0 3.82-1.595 3.82-4.64V8.02262Zm3.578 10.06298h2.585c0 1.45 1.092 2.32 2.872 2.32 1.896 0 2.987-.783 2.987-2.088 0-.957-.459-1.537-1.924-1.914l-2.47-.58c-2.499-.609-3.676-1.856-3.676-3.944 0-2.60998 2.182-4.26298 5.284-4.26298 3.074 0 5.084 1.74 5.141 4.43698h-2.584c-.058-1.421-1.006-2.31998-2.643-2.31998-1.694 0-2.642.75398-2.642 2.05898 0 .957.689 1.595 2.068 1.943l2.47.609c2.384.58 3.561 1.682 3.561 3.799 0 2.697-2.297 4.408-5.629 4.408-3.303 0-5.4-1.769-5.4-4.466Z" fill="#7C7B7B"/></g><defs><clipPath id="clip0_8325_2288"><path fill="#fff" d="M.164062.453491h146v29h-146z"/></clipPath></defs></svg>