<svg width="164" height="28" viewBox="0 0 164 28" fill="none" xmlns="http://www.w3.org/2000/svg"><g clip-path="url(#clip0_8325_2290)"><path d="M10.4979 4.76917h1.5752c.3053.60468.3053.60468.4201.86959.0262.06018.0523.12036.0793.18236.0279.06441.0557.12882.0845.19518.0466.1072.0932.21437.1399.32154.0331.07589.0661.15178.0991.22769.1773.40731.3563.81382.5355 1.22031.0975.22132.195.44267.2925.66402.02.04553.0401.09106.0607.13797.2257.51257.4509 1.02531.6761 1.53807.0465.1059.093.2118.1395.3178.2286.5204.457 1.0409.6839 1.5621.0335.0767.067.1535.1005.2303.0605.139.1209.2781.1812.4172.0261.0598.0522.1196.079.1813.0224.0516.0448.1031.0679.1563.044.1115.044.1115.108.1687.5926-1.3432 1.1816-2.6879 1.7678-4.03379.1389-.31884.278-.63757.4173-.95622.0275-.06286.0275-.06286.0556-.12698.0718-.16447.1437-.32893.2157-.49338.2015-.46086.4021-.92209.6012-1.38397.019-.04408.038-.08817.0576-.13359.0914-.21193.1827-.42392.2737-.63601.0324-.07521.0648-.15042.0973-.22563.0147-.03457.0295-.06915.0447-.10477.1021-.23621.1021-.23621.1626-.29609h1.5751V14.7732h-1.0863c-.0179-2.7511-.0359-5.50224-.0543-8.3367-.2151.49697-.4302.99394-.6518 1.50597-.1163.26679-.2327.53352-.3497.80005l-.0876.20001c-.0599.1367-.1198.27338-.1797.41006-.1328.30307-.2654.60622-.398.90931-.0738.1686-.1476.3372-.2213.5057-.0219.0501-.0219.0501-.0443.1011-.1007.2304-.2016.4607-.3024.691-.4688 1.0709-.9366 2.1421-1.4043 3.2135h-1.032c-.2763-.5793-.5391-1.1628-.7944-1.7514-.0386-.0887-.0771-.1773-.1157-.2659-.0774-.1778-.1548-.3555-.2321-.5334-.1449-.3332-.2906-.6662-.4364-.9992-.0268-.0614-.0537-.1228-.0814-.1861-.173-.3954-.3464-.7907-.5198-1.18588-.1112-.25328-.2223-.50659-.3334-.75989-.055-.1254-.1101-.2508-.1652-.37618-.0785-.17878-.1569-.3576-.2354-.53642-.0228-.05195-.0456-.10391-.0692-.15744-.2229-.5087-.4388-1.0199-.6562-1.53111-.0179 2.73335-.0358 5.46672-.0543 8.28292h-1.0863V4.76917ZM125.863 5.14547c.044.02247.089.04493.134.06808.407.22174.732.52612 1.061.84627.036.03355.072.06711.109.10168.363.3698.75.9924.815 1.51186-.151.0541-.301.10783-.452.16136-.043.01539-.085.03078-.129.04664-.041.01456-.083.02912-.125.04412-.038.01352-.076.02704-.115.04097-.103.02962-.103.02962-.266.02962-.024-.05463-.049-.10926-.074-.16555-.39-.83989-.921-1.46991-1.798-1.85285-1.078-.39295-2.236-.39431-3.288.08215-.934.47881-1.608 1.25785-1.955 2.23711-.374 1.26592-.273 2.58627.37 3.75027.606.948 1.433 1.4413 2.509 1.7039 1.079.1872 2.145-.0209 3.072-.6045.403-.2883.69-.6141.916-1.0494.018-.0326.035-.0653.053-.0989.175-.3634.214-.6805.304-1.0978h-4.237V9.87854h5.432c0 .91256-.053 1.64996-.435 2.47406-.026.0581-.053.1161-.081.1759-.232.4634-.529.8085-.896 1.1688-.034.0353-.068.0705-.103.1069-.864.8362-2.179 1.0903-3.343 1.0897-1.326-.0175-2.625-.4739-3.57-1.4105-1.014-1.052-1.448-2.5062-1.417-3.93597.055-1.35993.608-2.69056 1.622-3.62186 1.551-1.35288 4.031-1.78329 5.887-.7801ZM35.2656 4.76917c5.4123 0 5.4123 0 6.357.90236.6139.68911.8098 1.47768.7583 2.37851-.0987.72367-.4192 1.35575-.993 1.82175-.5028.36631-1.0866.66431-1.7228.65231.3079.4494.6276.8887.9539 1.3251.2182.2919.4342.5853.6484.8801.2504.3444.5028.6871.757 1.0287.0308.0414.0616.0827.0934.1254.0296.0397.0592.0794.0897.1204.0286.0383.0571.0767.0866.1162.0598.0795.1203.1584.1814.2369.0299.0385.0598.077.0906.1167.027.0343.0541.0687.0819.1041.0588.0879.0588.0879.0588.1955-1.123.152-1.123.152-1.4793-.0786-.2151-.2189-.3583-.4835-.5044-.7504-.1335-.2313-.2977-.4386-.4605-.6501-.0641-.0856-.1281-.1714-.1918-.2572-.0314-.0421-.0628-.0843-.0951-.1277-.1205-.1628-.2401-.3263-.3589-.4904-.0583-.0799-.1175-.1591-.1775-.2377-.1592-.2104-.2908-.4147-.4056-.6521-.1698-.3385-.1698-.3385-.6178-.7359-.9948-.0267-.9948-.0267-2.0097-.0538v4.0339h-1.1406V4.76917Zm1.1406 1.02191v3.92629l1.3986.01009c.1444.00147.2887.00294.4374.00445.1165.00047.2329.00088.3493.00122.0589.00083.1177.00165.1783.0025.7089.00024 1.4124-.15859 1.9443-.64687.4295-.45374.5469-.93549.5412-1.54022-.0351-.46094-.222-.89454-.5582-1.21961-.4922-.36534-1.0503-.54539-1.6641-.54396-.0595.00001-.119.00001-.1804.00002-.0616.00028-.1233.00055-.1868.00084-.0573.00005-.1147.0001-.1737.00016-.2133.00028-.4265.00103-.6398.00173-.7158.00166-.7158.00166-1.4461.00336ZM102.128 4.71521c5.406 0 5.406 0 7.013 1.53959.984.98206 1.365 2.271 1.365 3.62868-.015 1.33722-.53 2.50532-1.48 3.43732-.043.0431-.085.0862-.129.1307-1.769 1.7017-4.554 1.3215-6.769 1.3215V4.71521Zm1.086 1.0757v7.96019c2.81.0697 2.81.0697 5.115-1.2327.796-.8263 1.066-1.8945 1.039-3.00919-.048-1.06149-.51-2.00503-1.266-2.75018-1.404-1.19317-3.115-.96812-4.888-.96812ZM149.503 4.70923c.052.00028.104.00056.157.00085.085.00026.085.00026.171.00053.059.00045.118.0009.179.00136.089.00037.089.00037.18.00074.147.00063.294.00152.441.00262.523 1.17509 1.043 2.35135 1.553 3.53231.016.03774.032.07547.049.11435.016.03724.032.07449.049.11286.162.37661.327.75246.491 1.12818.043.0976.043.0976.087.19717.044.10039.088.2008.132.3012.316.7211.631 1.4426.945 2.1643.065.1494.131.2987.196.448.114.2622.228.5245.342.7868.044.1018.089.2036.133.3053.062.1416.124.2833.185.425.019.0426.037.0851.056.1289.127.2936.127.2936.127.4134h-1.195c-.138-.3167-.276-.6334-.414-.9504-.047-.1077-.094-.2155-.141-.3231-.068-.1549-.136-.31-.203-.465-.021-.0481-.042-.0961-.064-.1456-.02-.0452-.039-.0904-.059-.137-.018-.0395-.035-.079-.053-.1198-.043-.1181-.043-.1181-.098-.387h-5.54c-.018.0888-.036.1775-.054.2689-.03.0802-.062.1596-.096.2379-.02.0452-.039.0904-.059.137-.021.048-.042.0961-.064.1456-.022.0497-.043.0995-.066.1507-.069.1585-.138.3168-.207.4751l-.141.3228c-.115.2635-.23.5267-.345.7899h-1.14c.183-.5445.183-.5445.265-.7331.028-.0647.028-.0647.057-.1307.02-.0456.04-.0912.06-.1381.032-.0744.032-.0744.065-.1503.072-.1639.143-.3278.215-.4916.051-.1171.101-.2341.152-.3512.08-.1846.161-.3692.241-.5537.191-.4379.38-.876.57-1.3144.601-1.39134 1.205-2.78131 1.815-4.16875.049-.11091.097-.22183.146-.33274.023-.05254.046-.10507.07-.1592.172-.39135.34-.78413.504-1.1784.149-.35377.149-.35377.306-.36168Zm.422 1.24316c-.392.90549-.784 1.81113-1.176 2.71695-.093.21571-.187.43139-.28.64707-.11.25536-.221.5108-.331.76629-.04.0925-.08.1849-.12.2772-.055.1268-.109.2537-.164.3806-.016.0369-.032.0739-.048.112-.081.1791-.081.1791-.108.3708h4.563c-.13-.3883-.13-.3883-.28-.7643-.023-.0523-.045-.1047-.069-.1586-.025-.0571-.05-.1141-.076-.173-.042-.0963-.084-.19259-.126-.28891-.032-.07287-.063-.14573-.095-.21857-.131-.29775-.26-.59583-.389-.89401-.107-.24631-.214-.49256-.321-.7388-.053-.12324-.107-.24649-.16-.36977-.076-.17589-.153-.3517-.229-.52749-.023-.05245-.045-.1049-.069-.15894-.145-.33217-.301-.6567-.468-.97852h-.054ZM.612442 4.76917H6.96732v1.02191H1.75306v3.38844H6.5328v1.02188H1.75306v3.5498h5.26858v1.022H.612442V4.76917ZM60.6851 4.76917h6.3548v1.02191h-5.2685v3.38844h4.834v1.02188h-4.834v3.5498h5.3229v1.022h-6.4092V4.76917ZM55.9598 5.19936c.5662.43927 1.054.98843 1.1752 1.7125.0065.05609.013.11218.0197.16997-.1209.04536-.2419.09008-.3632.13447-.034.01282-.068.02565-.103.03886-.1954.07092-.3575.11137-.5658.0956-.0139-.04035-.0278-.08071-.0422-.12228-.2185-.57861-.5736-1.06535-1.1527-1.32991-.6403-.26318-1.3939-.29989-2.0434-.05358-.486.22194-.8374.50723-1.0577.99649-.1591.42934-.1239.87066.066 1.28874.2553.42529.5962.62251 1.0728.74458.3562.08433.7151.15511 1.0744.22517 1.105.21565 2.1719.52024 2.8365 1.49473.3948.6673.51 1.3734.3225 2.1278-.252.7694-.7314 1.3688-1.4508 1.7596-.9659.4736-2.0166.5283-3.0472.2372-.9562-.3244-1.6583-.9015-2.1486-1.7768-.1557-.3171-.252-.6123-.2413-.9662.13-.0378.2601-.0746.3904-.111.0366-.0107.0732-.0214.1109-.0324.3831-.1055.3831-.1055.585-.018.0626.1177.0626.1177.1053.2689.2215.6774.6715 1.1383 1.2946 1.4783.6496.3021 1.3935.3222 2.0729.0983.4911-.2045.8443-.4531 1.0897-.9312.1688-.425.1791-.8847.017-1.3143-.2065-.4379-.499-.6956-.9404-.8908-.4957-.17-1.0147-.2668-1.5283-.3669-.9549-.18742-1.9265-.44131-2.5215-1.27357-.3776-.63517-.5095-1.31774-.3669-2.04488.2297-.79548.712-1.43471 1.4483-1.84129 1.1842-.55094 2.7954-.54448 3.8918.2019ZM25.1629 4.76917c5.2479 0 5.2479 0 6.1941.90215.5864.65938.846 1.45212.8058 2.32494-.063.63932-.2658 1.14864-.645 1.66733-.0414.05768-.0829.11537-.1256.1748-.7823.79271-1.9069 1.04341-2.9896 1.06481-.3433.0038-.6865.0023-1.0297.0008-.5293-.0017-.5293-.0017-1.0693-.0034v3.8726h-1.1407V4.76917Zm1.1407 1.02191v4.08765c.3596.00222.7192.00443 1.0897.00672l.3384.00297c.9352.00484 1.8942-.0031 2.6593-.61582.4021-.39464.6279-.90931.655-1.46459-.0077-.50648-.1689-.9894-.5033-1.37509-.4538-.42448-1.0847-.64944-1.7049-.64795-.0573.00001-.1146.00001-.1736.00002-.0894.00041-.0894.00041-.1806.00084l-.1674.00016c-.2058.00028-.4116.00103-.6174.00173-.6907.00166-.6907.00166-1.3952.00336ZM135.531 4.71521h7.876v1.0757h-3.367V14.773h-1.087V5.79091h-3.367c-.018-.01775-.036-.0355-.055-.05379V4.71521ZM157.746 4.71521h1.087v9.03589h4.779v1.0219h-5.92c-.002-2.5066-.002-2.5066-.003-3.5535 0-.7241 0-1.44819-.001-2.17228-.001-.52726-.001-1.05451-.001-1.58176 0-.27936 0-.55872-.001-.83808V5.54947c-.001-.13141-.001-.26281 0-.39422-.001-.03877-.001-.07753-.001-.11748.001-.26264.001-.26264.061-.32256ZM132.273 22.787h.977c.269 1.0117.538 2.0234.815 3.0657.305-1.0117.609-2.0234.923-3.0657h.815c.135.3409.243.6854.345 1.037.017.0567.033.1134.051.1718.052.1797.105.3594.157.5392l.108.3672c.088.2989.175.5978.262.8967.087-.1587.14-.3101.185-.4847.014-.0535.028-.1069.043-.162.022-.0861.022-.0861.044-.1739.016-.0591.031-.1183.047-.1792.049-.1888.098-.3777.146-.5666.049-.1893.098-.3786.148-.5679.03-.1177.061-.2355.091-.3534.014-.0531.028-.1062.042-.161.012-.0469.024-.0938.036-.1421.033-.1135.033-.1135.087-.2211h.978c-.082.49-.202.9663-.331 1.4457-.022.0809-.043.1618-.065.2427-.045.1682-.09.3364-.135.5045-.059.2157-.116.4315-.174.6473-.044.1665-.089.3329-.134.4993-.021.0796-.042.1592-.064.2389-.029.1107-.059.2214-.089.332-.017.063-.034.1259-.051.1908-.043.1478-.043.1478-.098.2554h-1.194c-.184-.4841-.184-.4841-.242-.6668-.013-.0409-.026-.0818-.039-.1239-.014-.0425-.027-.085-.041-.1287-.014-.0448-.028-.0895-.043-.1356-.045-.1414-.09-.2827-.135-.4241-.03-.0965-.061-.193-.091-.2895-.075-.2352-.15-.4703-.224-.7055-.419 1.2335-.419 1.2335-.815 2.4741h-1.249c-.142-.5283-.284-1.0566-.425-1.585-.066-.2454-.131-.4907-.197-.736-.064-.2367-.127-.4735-.191-.7103-.024-.0904-.048-.1807-.072-.2709-.034-.1265-.068-.2531-.102-.3797-.01-.0373-.02-.0745-.031-.1129-.052-.1993-.068-.3518-.068-.5618ZM34.3423 22.787h1.032c.0341.1307.0341.1307.069.264.0842.3227.1686.6454.2529.968.0366.1398.0731.2795.1096.4193.0523.2007.1048.4013.1573.602.0163.0627.0327.1254.0495.19.0153.0581.0305.1162.0462.1761.0134.0513.0267.1025.0405.1553.0268.0979.0574.1948.0897.291.0108-.036.0216-.072.0327-.1092.1014-.3395.2029-.679.3045-1.0185.0522-.1745.1043-.3491.1565-.5236.06-.2007.12-.4013.18-.602.0187-.0627.0374-.1254.0567-.19.0261-.0872.0261-.0872.0528-.1761.0229-.0769.0229-.0769.0464-.1553.0297-.0975.0613-.1944.0938-.291h.8147c.1348.3409.2429.6854.3452 1.037.0167.0567.0333.1134.0505.1718.0527.1797.1052.3594.1577.5392.0358.1224.0717.2448.1076.3672.0877.2989.1751.5978.2624.8967.1329-.3316.2307-.6641.3195-1.0097.0141-.054.0282-.1081.0428-.1638.0446-.1713.089-.3426.1333-.514.0448-.1725.0896-.3449.1345-.5174.0279-.107.0557-.214.0833-.3211.0125-.0481.025-.0962.0379-.1458.011-.0425.0219-.0849.0332-.1286.0302-.1039.0302-.1039.0845-.2115h.9777c-.0886.472-.2083.9343-.3312 1.3984-.0216.0822-.0433.1643-.0649.2465-.045.1711-.0902.3422-.1354.5132-.0581.2194-.1158.4388-.1735.6583-.0445.1692-.0892.3383-.1338.5074-.0214.081-.0427.162-.064.243-.0297.1126-.0595.2252-.0893.3378-.0254.0961-.0254.0961-.0513.1942-.0429.1502-.0429.1502-.0972.2578h-1.1949c-.1834-.4236-.1834-.4236-.2413-.6118-.0131-.042-.0261-.084-.0395-.1272-.0201-.0659-.0201-.0659-.0407-.1332-.0142-.046-.0285-.092-.0431-.1394-.045-.1457-.0898-.2915-.1345-.4373-.0306-.0993-.0613-.1987-.0919-.298-.0748-.2423-.1494-.4848-.2238-.7272-.1177.3037-.2234.6089-.3214.9193-.0142.0448-.0285.0896-.0431.1357-.045.1413-.0897.2827-.1345.424-.0306.0965-.0613.1931-.092.2896-.0747.2351-.1492.4703-.2237.7055H35.483c-.1488-.5601-.2976-1.1202-.4462-1.6803-.069-.26-.1381-.5201-.2071-.7801-.0667-.2507-.1332-.5015-.1997-.7522-.0255-.0959-.0509-.1918-.0764-.2877-.0356-.1338-.0711-.2676-.1066-.4014-.0106-.0401-.0213-.0801-.0323-.1214-.0724-.2736-.0724-.2736-.0724-.3335ZM20.1118 22.7869h1.3579c.0536.1599.1072.3199.1625.4847.0521.1552.1042.3104.1564.4656.0362.1077.0723.2155.1084.3232.052.155.104.31.1561.465.0161.048.0322.0961.0487.1455.0732.2173.1472.4325.2369.6438.0889-.2485.1778-.4972.2666-.7458.0301-.0843.0602-.1686.0903-.2528.0438-.1223.0875-.2447.1311-.367.0213-.0596.0213-.0596.043-.1205.1032-.2904.2019-.582.2972-.8751.0409-.1129.0409-.1129.0952-.1666.1007-.0047.2015-.0058.3023-.0053.0611.0002.1222.0004.1851.0005.0643.0005.1286.0009.1949.0014.0645.0002.129.0005.1955.0007.16.0007.32.0016.4801.0027.0427.4965.0852.993.1274 1.4896.0196.2306.0393.4612.0592.6918.0192.2229.0382.4457.0571.6686.0072.0847.0144.1694.0218.2541.0362.418.0704.8324.0603 1.2524h-.9233c-.0478-.1419-.0669-.2486-.0796-.3958-.0062-.0709-.0062-.0709-.0126-.1432-.0043-.0509-.0086-.1018-.0131-.1543-.0046-.0526-.0092-.1052-.0139-.1594-.0148-.1684-.0293-.3369-.0438-.5053-.0145-.1677-.029-.3354-.0437-.5031-.0091-.1043-.0181-.2087-.027-.313-.0229-.263-.0514-.5232-.0922-.784-.0121.0354-.0243.0709-.0368.1075-.1142.334-.2284.668-.3428 1.0019-.0588.1717-.1176.3434-.1763.5151-.0674.1974-.135.3947-.2026.592-.0211.0618-.0422.1236-.064.1873-.0195.057-.0391.1141-.0593.1729-.0172.0504-.0345.1008-.0522.1527-.0437.1212-.0437.1212-.098.2287h-.6518c-.1277-.3688-.2552-.7376-.3824-1.1066-.059-.1714-.1182-.3427-.1775-.5139-.0682-.1968-.1361-.3938-.2039-.5907-.0214-.0616-.0428-.1231-.0648-.1865-.0196-.057-.0391-.1141-.0593-.1729-.0174-.0503-.0347-.1005-.0526-.1523-.0372-.1277-.0372-.1277-.0372-.289h-.1086c.0013.0324.0025.0648.0038.0981.0119.5935-.0555 1.1809-.1124 1.7709-.0105.1111-.021.2221-.0314.3332-.0254.27-.0512.5399-.0772.8097h-.9777c.0389-.7967.1029-1.5904.1714-2.3851.0158-.1825.0312-.365.0466-.5475.0149-.1759.03-.3518.0451-.5277.0055-.0652.011-.1305.0166-.1977.0053-.0604.0105-.1208.0159-.183.0046-.053.0091-.106.0138-.1606.0165-.1398.0165-.1398.0708-.3549ZM131.458 4.71521h1.14V14.773h-1.14V4.71521ZM113.914 4.71521H115V14.773h-1.14c-.002-1.3034-.003-2.6069-.003-3.9103 0-.6052-.001-1.21032-.001-1.81548-.001-.52726-.001-1.05451-.001-1.58176-.001-.27936-.001-.55872-.001-.83808 0-.26262-.001-.52524 0-.78786 0-.09669-.001-.19337-.001-.29005v-.5117c0-.26264 0-.26264.061-.32256ZM107.179 22.787c1.086 0 1.086 0 1.356.2643.066.1181.127.2387.185.3609.034.0637.069.1272.103.1904.071.1294.14.2596.208.3907.156.2968.343.5745.528.8543.061.095.123.19.184.2851.038.0589.038.0589.077.119.081.1274.159.2567.238.3859.018-.9407.035-1.8814.054-2.8506h.978v4.3566c-1.141 0-1.141 0-1.372-.1994-.068-.1312-.068-.1312-.125-.2746-.05-.0993-.1-.1984-.149-.2975-.024-.0508-.048-.1015-.072-.1538-.118-.2383-.264-.4567-.411-.6782-.278-.4281-.54-.864-.804-1.3009-.018.9584-.036 1.9169-.055 2.9044h-.923V22.787ZM50.8541 22.787c1.0863 0 1.0863 0 1.318.2267.052.1025.1014.2063.1485.3111.0675.1096.1363.2183.2062.3263.0718.1164.1433.2328.2147.3494.3389.5524.6907 1.094 1.0456 1.6371.0179-.9407.0359-1.8814.0543-2.8506h.9234v4.3566c-1.0863 0-1.0863 0-1.3401-.2332-.0873-.155-.0873-.155-.1672-.3249-.0643-.1177-.1287-.2355-.1932-.3531-.0322-.0619-.0643-.1237-.0974-.1875-.1577-.2995-.3418-.5833-.5231-.8692-.0934-.1477-.1851-.2965-.277-.4451-.0914-.1477-.1837-.2935-.2807-.4376-.0179.9407-.0359 1.8814-.0543 2.8506h-.9777V22.787ZM122.024 23.0963c.217.1766.416.3791.58.6051v.1075c-.112.0647-.225.1284-.339.1916-.032.0184-.064.0368-.097.0558-.134.074-.236.1302-.392.1251-.116-.0609-.166-.1252-.241-.2313-.238-.2891-.52-.34-.882-.3798-.316.0149-.628.121-.867.3273-.335.3703-.391.7683-.386 1.2559.065.3949.212.7276.533.9816.339.1846.672.2597 1.055.1748.288-.0842.485-.1873.693-.4034.054-.1242.108-.2485.163-.3765h-1.195v-.7529h2.118v2.3665h-.76c-.027-.213-.027-.213-.054-.4303-.026.0214-.052.0429-.078.0649-.518.4112-1.001.4781-1.66.4192-.651-.1247-1.142-.427-1.521-.9682-.306-.6098-.393-1.3536-.211-2.0169.227-.6056.58-1.0347 1.171-1.311.74-.32 1.704-.2659 2.37.195ZM72.1637 23.0192c.2655.1843.4983.4215.6879.682v.1075c-.1128.0647-.2259.1284-.3395.1916-.0319.0185-.0637.0369-.0965.0558-.2372.1306-.2372.1306-.3936.1235-.1318-.0677-.2019-.1763-.2917-.2904-.2153-.2352-.517-.289-.8205-.309-.3847.007-.6843.1516-.9656.4073-.2661.2999-.3152.7016-.3087 1.0871.0364.4214.1753.7664.5003 1.0469.3407.2066.7071.2777 1.1012.1866.2507-.0759.4535-.1559.6369-.348.0717-.142.1434-.284.2173-.4302h-1.195v-.753h2.1183v2.3665h-.7604c-.0269-.213-.0269-.213-.0543-.4303-.0257.0214-.0514.0429-.0779.0649-.5233.4152-1.0578.4894-1.7145.4192-.6268-.1256-1.0961-.4562-1.4665-.9681-.3326-.5969-.3571-1.3055-.2364-1.9684.1715-.5625.5399-1.0142 1.0511-1.3125.7551-.3401 1.6789-.3372 2.4081.071ZM59.1812 23.0961c.2171.1767.4161.3791.5805.6051v.1076c-.1141.0631-.2284.1258-.3429.1882-.0323.018-.0646.0359-.0979.0544-.1544.0837-.2494.1339-.4282.1339-.0819-.0885-.0819-.0885-.1698-.2051-.2602-.3065-.5218-.3671-.9131-.4101-.3535.0168-.7008.149-.9506.4-.2813.3704-.3438.8591-.2821 1.3085.0793.3319.2115.631.4892.8429.3338.2025.6944.2735 1.0785.1883.2884-.0843.4853-.1874.6936-.4034.0537-.1243.1075-.2485.1629-.3765h-1.1949v-.753h2.1183v2.3665h-.7605c-.0268-.213-.0268-.213-.0543-.4303-.0257.0215-.0514.0429-.0778.065-.5186.4113-1.0001.4774-1.6603.4191-.624-.1146-1.0979-.4033-1.4665-.9143-.2497-.4142-.3467-.8324-.3428-1.311.0003-.0401.0006-.0801.0009-.1213.013-.5844.2063-1.0851.6016-1.5263.7833-.7343 2.129-.8419 3.0162-.2282ZM45.9114 4.76917h1.0863V14.7732h-1.0863V4.76917ZM115.652 23.2173c.193.1791.329.3305.38.5916-.114.0632-.228.1258-.343.1882-.032.018-.064.036-.098.0545-.154.0837-.249.1338-.428.1338-.031-.0488-.063-.0976-.095-.1479-.165-.2361-.336-.3262-.608-.4303-.441-.053-.807.0077-1.188.242-.35.3572-.406.7252-.407 1.208.007.3937.113.6506.363.9502.344.2759.683.3699 1.12.3294.334-.0609.538-.1728.75-.4349.083-.1252.083-.1252.174-.3719h-1.141v-.753h2.064v2.3666h-.76c-.027-.213-.027-.213-.055-.4303-.047.041-.094.0821-.142.1244-.479.3937-1 .3925-1.596.3596-.538-.0862-1.038-.3689-1.383-.7882-.386-.5835-.502-1.2716-.38-1.9552.173-.6686.462-1.1182 1.064-1.4761.863-.4602 1.933-.3291 2.709.2395ZM131.013 23.0929c.46.329.723.7888.857 1.3284.113.7073.008 1.4006-.405 1.9938-.406.4792-.951.7424-1.575.8024-.656.03-1.258-.1033-1.788-.5015-.46-.4204-.687-.95-.729-1.5629-.01-.6796.114-1.2381.554-1.7745.298-.2946.634-.4649 1.032-.5916.033-.0104.065-.0207.098-.0313.683-.1283 1.362-.0179 1.956.3372Zm-2.468 1.0282c-.241.3809-.227.8135-.183 1.2475.108.3548.285.6064.597.8068.348.1793.681.2199 1.062.128.406-.1372.647-.3757.86-.7398.121-.5034.125-.996-.153-1.4535-.246-.304-.534-.4774-.924-.5365-.524-.0261-.923.1532-1.259.5475ZM33.1915 23.1397c.4907.3793.7396.8707.8249 1.4758.0599.6975-.0792 1.3405-.5295 1.891-.4029.4303-.9121.6605-1.5005.7043-.6867.0216-1.2562-.1083-1.8022-.5339-.4968-.4684-.6777-1.0415-.6997-1.7051.0166-.6764.2249-1.2694.7233-1.7445.8545-.6854 2.0886-.6733 2.9837-.0876Zm-2.5426.9917c-.2352.4056-.2541.8239-.1477 1.2719.111.3595.3208.6188.6365.8257.3841.1549.7574.1594 1.1474.0269.3361-.1462.5674-.3797.7082-.7154.1147-.4345.1218-.9557-.0961-1.3589-.1874-.2574-.4015-.4355-.6969-.5578-.6401-.1001-1.108.0199-1.5514.5076ZM90.1782 22.787c2.558 0 2.558 0 3.1913.5698.4906.5163.5279 1.1858.517 1.8568-.0223.5645-.2019 1.0475-.6123 1.4459-.8631.7351-2.0329.4841-3.096.4841V22.787Zm.9777.8068v2.6892c.7426.0692.7426.0692 1.3358-.1895.316-.3285.4034-.6847.4159-1.1282-.0133-.4718-.1193-.8245-.4583-1.1698-.4031-.2484-.8208-.2017-1.2934-.2017ZM62.4232 22.787c2.6008 0 2.6008 0 3.1503.5378.5255.5621.5765 1.2526.5503 1.9866-.0346.5355-.277 1.0534-.6726 1.4221-.8386.6514-2.0828.4101-3.028.4101V22.787Zm.9233.8068v2.6892c.9716.0903.9716.0903 1.4665-.2689.319-.3574.3395-.7855.3191-1.2438-.0388-.4074-.1297-.657-.4107-.9547-.4368-.2775-.8474-.2218-1.3749-.2218ZM123.637 22.787c2.278 0 2.278 0 2.685.3189.334.4124.412.766.356 1.2946-.093.3204-.27.512-.543.6992-.156.0706-.156.0706-.271.1076.234.4488.524.8586.815 1.2727.062.0893.125.1788.187.2684.037.0527.074.1053.112.1596.08.128.08.128.08.2356h-1.14c-.069-.1221-.137-.2441-.207-.3698-.195-.344-.394-.6861-.598-1.0253-.024-.0423-.049-.0846-.075-.1282-.023-.0392-.047-.0783-.072-.1186-.021-.0348-.041-.0696-.063-.1055-.078-.1048-.078-.1048-.289-.1351v1.8825h-.977V22.787Zm.977.8068v.9681c.111.0022.222.0044.336.0067.063.0013.125.0025.189.0038.217-.0126.369-.0663.551-.1786.107-.1665.1-.3433.065-.5311-.102-.1308-.178-.1958-.326-.2689-.139-.0039-.276-.005-.414-.0034-.132.0011-.265.0022-.401.0034ZM142.429 22.787h.978v1.7749h1.792V22.787h.924v4.3566h-.924v-1.7749h-1.792v1.7749h-.978V22.787ZM94.6866 22.787c2.3248 0 2.3248 0 2.7463.3952.2591.2948.304.6791.2954 1.057-.0568.3254-.1715.5421-.4345.753-.236.1613-.236.1613-.4346.1613.2271.4332.5018.8335.7774 1.2371.068.0997.136.1995.2038.2993.0607.0895.1217.1788.1826.2681.0855.1318.0855.1318.0855.1856-.957.1263-.957.1263-1.233-.0636-.1576-.1816-.2456-.3998-.3386-.6186-.1069-.2301-.2499-.4392-.3872-.6524-.0519-.0819-.1034-.164-.1546-.2464-.0329-.0523-.0329-.0523-.0665-.1057-.047-.0882-.047-.0882-.047-.1958H95.61v1.8825h-.9234V22.787Zm.9234.8068v.9681c.5691.0336.5691.0336 1.0863-.1614.1172-.1412.1086-.2179.1052-.4034-.0627-.2318-.1172-.28-.3225-.4033-.152-.025-.298-.0205-.4515-.0135-.1378.0045-.2756.0089-.4175.0135ZM44.8251 22.787c2.1902 0 2.1902 0 2.6241.2756.3469.3674.3874.7193.3868 1.2125-.0374.2848-.1458.4941-.3698.6767-.0307.0258-.0613.0516-.0929.0782-.1196.0802-.2412.1259-.3756.1773.196.3071.3936.613.5956.9162.0355.0535.0711.1069.1077.1619.0734.1102.1469.2203.2206.3303.0351.0528.0701.1056.1062.16.0317.0475.0634.095.0961.1439.0688.1164.0688.1164.0688.224-.9005.1349-.9005.1349-1.1823-.0698-.171-.1967-.2777-.4287-.3856-.6635-.1063-.2198-.2387-.424-.3671-.6315-.2376-.3917-.2376-.3917-.2376-.5177h-.2716v1.8825h-.9234V22.787Zm.9234.8068v.9681c.5703.0371.5703.0371 1.0863-.1614.0877-.1953.1228-.3147.0747-.5244-.0882-.1429-.144-.1997-.292-.2823-.1549-.0116-.2941-.0153-.4481-.0101-.2083.005-.2083.005-.4209.0101ZM80.2387 22.787h1.1949c.4506 1.197.4506 1.197.6247 1.6602.0472.1254.0943.2508.1415.3763.0232.0617.0464.1234.0703.187.1139.303.228.6058.3429.9084.0399.1052.0797.2103.1194.3155.045.1189.0902.2377.1356.3564.0192.0509.0384.1019.0582.1544.0162.0426.0324.0851.0491.1289.0335.1081.0335.1081.0335.2695h-.9777c-.0448-.121-.0896-.2419-.1358-.3664-.0142-.0379-.0284-.0757-.043-.1147-.0556-.1523-.0928-.2701-.0928-.4333-.8872.0266-.8872.0266-1.7924.0538-.1075.284-.2151.568-.3259.8606h-.9777c.1292-.4464.2847-.8808.4464-1.3165.0274-.0742.0548-.1483.0822-.2225.0716-.1939.1434-.3877.2152-.5815.0728-.1965.1454-.3932.218-.5898.1065-.2883.2131-.5765.3198-.8647.0214-.0576.0427-.1152.0647-.1746.0756-.2026.1523-.4048.2289-.607Zm.5431 1.0219c-.0775.2201-.1549.4403-.232.6605-.0263.0749-.0527.1498-.0791.2247-.0379.1076-.0756.2152-.1132.3229-.0341.0971-.0341.0971-.069.1963-.0553.1453-.0553.1453-.0498.2629h1.1949c-.0405-.2405-.0837-.4242-.1665-.6483-.0219-.0597-.0438-.1193-.0663-.1807-.0229-.0614-.0458-.1229-.0693-.1862-.0231-.0626-.0462-.1253-.0699-.1899-.0568-.1542-.1139-.3082-.1711-.4622h-.1087Z" fill="#7C7B7B"/><path d="M87.6797 5.49867c.4115.22047.754.54219.9276.97695.1239.43577.1242.95509-.0953 1.35996-.2828.42042-.6188.74539-1.1209.88009-.5316.09425-1.015-.01593-1.4582-.3143-.34-.26686-.5598-.62659-.6431-1.05049-.0481-.5222.053-.9962.3906-1.40807.5168-.51506 1.3025-.7252 1.9993-.44414ZM87.8969 10.3089c.3599.2348.6044.5539.7392.9604.1017.5526.0379 1.0577-.276 1.5253-.266.3343-.6042.5011-1.0063.6338-.5764.0489-1.0296-.0235-1.4835-.3899-.3748-.3508-.5755-.75-.6009-1.264.0123-.4712.1852-.8723.5132-1.2118.6125-.5413 1.3823-.63071 2.1143-.2538ZM83.1173 10.3089c.4061.2791.7002.6443.7995 1.1299.0644.4521-.024.8396-.236 1.2433-.3607.4325-.7043.7067-1.2753.7629-.5106.0196-.9055-.0823-1.3114-.3931-.3726-.3539-.548-.7619-.5636-1.2707.0237-.5096.1651-.8961.5192-1.2702.5835-.4915 1.402-.57892 2.0676-.2021ZM83.1991 5.64201c.365.2566.5883.61148.7193 1.03305.0498.50544.0064.96082-.2953 1.38832-.3295.39577-.6955.61407-1.212.68576-.5685.02403-1.0132-.14262-1.4325-.52104-.3827-.41267-.4521-.83449-.4348-1.38538.0496-.46048.2791-.79426.6181-1.10553.6008-.44813 1.3893-.46643 2.0372-.09518Z" fill="#494848"/><path d="M25.8692 22.787c2.3928 0 2.3928 0 2.8057.3307.033.0395.0661.079.1001.1197.0342.0393.0684.0785.1036.119.2543.3815.2399.8184.1952 1.2593-.1314.4321-.3627.6779-.756.8937-.2873.1189-.5915.0914-.8973.0845-.3108-.005-.3108-.005-.628-.0101v1.5598h-.9233V22.787Zm.9233.8068v1.1832c.1647.0045.3294.0089.4991.0135.0514.0019.1028.0039.1557.0059.226.003.3465-.0005.5429-.1211.1868-.2001.178-.3614.1761-.6252-.0221-.1859-.0953-.2781-.2332-.4026-.1275-.0631-.203-.0599-.3449-.059-.0625.0002-.0625.0002-.1262.0004-.0529.0005-.1058.001-.1603.0015-.252.0017-.252.0017-.5092.0034ZM41.3489 22.787h2.5528v.8068h-1.5751v.9681h1.4122v.8068h-1.4122v.9143h1.5751v.8606h-2.5528V22.787ZM100.281 22.787h.978c.269.6078.479 1.2334.692 1.8623.056.1634.112.3267.167.4901.035.101.069.202.104.3031.015.0453.03.0906.046.1372.014.0399.027.0797.041.1208.035.1017.035.1017.09.206.01-.028.02-.0559.029-.0848.102-.295.203-.59.304-.8849.038-.1096.076-.2193.113-.3289.209-.6086.42-1.2163.641-1.8209h1.032c-.112.3817-.239.7545-.378 1.1272-.02.055-.041.1101-.062.1668-.043.1161-.086.2323-.129.3484-.065.1736-.13.3473-.194.5211-.206.5528-.413 1.1049-.624 1.6558-.018.0482-.036.0964-.055.1461-.017.0438-.034.0876-.051.1327-.015.0384-.029.0768-.045.1164-.038.0883-.038.0883-.092.1421-.077.0046-.154.0057-.231.0052-.042-.0001-.083-.0003-.126-.0004-.054-.0005-.107-.001-.162-.0015-.092-.0006-.183-.0012-.275-.0018-.045-.0003-.09-.0006-.136-.0009-.05-.0003-.05-.0003-.102-.0006-.338-.8892-.671-1.7802-1.001-2.6725-.066-.1765-.131-.3531-.196-.5296-.04-.1083-.08-.2167-.121-.3251-.018-.0485-.036-.0971-.054-.1472-.016-.0423-.031-.0846-.047-.1282-.034-.0888-.07-.1766-.108-.2639-.048-.1288-.048-.1288-.048-.2901ZM16.4725 22.787h2.5528v.8068h-1.6295v.9681h1.4666v.8068h-1.4666v.9143h1.6295v.8606h-2.5528V22.787ZM75.459 22.787h3.0416v.8068h-1.032v3.5498h-.9233v-3.5498H75.459v-.8068ZM138.79 22.787h2.988v.8068h-1.032v3.5498h-.924v-3.5498h-1.032v-.8068ZM83.6062 22.787h.9777v3.496h1.3579v.8606h-2.3356V22.787ZM105.115 22.787h.978v4.3566h-.978V22.787ZM98.7058 22.787h.9777v4.3566h-.9777V22.787ZM73.8838 22.787h.9776v4.3566h-.9776V22.787ZM66.9312 22.787h.9233v4.3566h-.9233V22.787ZM48.8443 22.787h.9234v4.3566h-.9234V22.787Z" fill="#7C7B7B"/><path d="M87.2894 2.22431c.2255.16202.3541.29938.4211.5723.0456.3095.0326.57426-.1394.84291-.1927.20663-.3741.36152-.6664.38742-.2907.00531-.5003-.00102-.7458-.17228-.2479-.24437-.3859-.43521-.4005-.78996.0035-.29925.0928-.49311.2919-.71601.3821-.30112.7985-.35005 1.2391-.12438ZM82.9714 2.19623c.2535.17212.3897.33645.4718.63638.0418.29449.018.52476-.1478.7761-.1826.22218-.3824.38552-.6777.42187-.3564.01441-.5887-.04696-.8582-.28363-.2257-.2865-.296-.49804-.2716-.86056.1177-.3557.2828-.55706.6076-.74626.3109-.09085.5821-.09083.8759.0561ZM78.765 14.9366c.2377.181.3656.3791.4065.6726.0166.313-.0174.5405-.2073.7956-.2257.2417-.4303.3169-.7623.3313-.3529-.0139-.5439-.1192-.8046-.3563-.1532-.2586-.2216-.5235-.1837-.8236.0868-.3141.2484-.5055.5266-.6757.34-.1524.6984-.1244 1.0248.0561ZM78.642 10.6388c.2496.1536.428.2964.5103.5843.0461.3861.0212.6554-.2173.9681-.2173.2152-.4502.3192-.7612.3246-.3295-.0255-.5339-.1614-.7732-.3851-.1528-.2486-.235-.5219-.1814-.8135.0999-.2853.246-.4998.4971-.6757.3127-.1069.6166-.1363.9257-.0027ZM78.6192 6.3859c.223.1521.411.34679.533.58828.0286.33409.0404.63242-.163.91434-.2469.23386-.4402.36207-.7808.3933-.2941-.02511-.496-.11432-.7264-.29582-.2059-.25488-.2852-.46953-.2852-.79669.0546-.28878.1869-.53867.4233-.72021.3263-.18314.6462-.19968.9991-.0832ZM78.738 2.22773c.233.19779.3936.37142.429.68134.0117.31528-.0076.5438-.1992.80257-.2253.23067-.4732.3157-.7933.33469-.2894-.01323-.4932-.10588-.7061-.29918-.1854-.22402-.2666-.46443-.2716-.75299.0557-.33159.1763-.54295.4483-.74458.3516-.23053.7209-.21288 1.0929-.02185ZM87.3046 14.9468c.2815.2199.4078.4633.4534.8179-.0396.3194-.1599.5679-.4074.7799-.2902.2018-.5758.1986-.9199.1647-.2913-.0922-.4517-.2768-.5975-.5378-.1009-.2998-.0981-.5886.0373-.8774.1433-.2495.3039-.3736.5703-.4874.3111-.0505.5885-.0204.8638.1401ZM91.5973 14.9525c.2186.1776.3566.329.3916.6149.0047.3602-.0109.5845-.2355.873-.2781.2552-.5076.2915-.8767.2872-.2845-.0335-.4737-.1619-.6647-.3681-.1875-.2685-.1887-.5726-.1423-.8873.0907-.2608.2539-.4455.4888-.5916.3516-.1502.712-.1316 1.0388.0719ZM83.1301 15.0109c.1998.1764.2928.3786.3316.6389.0113.266-.026.4594-.1814.6828-.2478.2419-.4192.3842-.774.3899-.255-.0033-.4255-.0244-.6382-.1748-.2362-.2445-.3656-.4358-.3972-.7731.0277-.3174.1226-.5355.3599-.7496.4243-.3288.8644-.31 1.2993-.0141ZM91.4462 10.6252c.2505.1398.4426.3184.5244.598.0396.3035.0439.5553-.0916.8336-.2176.2329-.4043.3904-.7231.4572-.3291.0053-.5574-.0556-.8147-.2689-.2548-.2796-.2945-.5004-.2901-.8682.0339-.2817.1635-.4691.3718-.6582.2988-.2047.6882-.2185 1.0233-.0935ZM91.4956 6.40951c.24.1369.3833.30554.4752.56474.0452.30146.0443.55274-.0882.83031-.4089.43683-.4089.43683-.6722.46053-.0874.00832-.0874.00832-.1765.01681-.3307-.02729-.5816-.14833-.7978-.40003-.2114-.29179-.1995-.55494-.1663-.90762.126-.26393.3105-.42012.5431-.59163.2975-.09817.5925-.09688.8827.02689ZM91.5531 2.22765c.2108.1747.4021.35478.4324.63408.0111.33275.0023.57937-.2028.85173-.2166.22651-.4164.3141-.732.32943-.3227-.01554-.5696-.09877-.7967-.33132-.2158-.29161-.2333-.58112-.1843-.93262.0941-.27967.2473-.42285.4888-.59163.3373-.1633.6688-.13014.9946.04033Z" fill="#494848"/><path d="M147.862 26.1756c.149.0966.246.1642.326.3229.021.225.024.3395-.102.5314-.148.1467-.194.1653-.404.185-.232-.0194-.311-.0717-.473-.2321-.084-.1668-.07-.3002-.054-.4843.201-.3046.343-.3535.707-.3229ZM87.2457 26.1755c.1948.1384.2602.229.3261.4575 0 .2113-.0311.2941-.163.4574-.2048.1352-.3006.1362-.5435.1077-.1868-.1077-.1868-.1077-.3261-.2691-.0405-.1521-.0373-.278 0-.4306.1956-.3034.3458-.3592.7065-.3229Z" fill="#7C7B7B"/><path d="M76.1655 11.1159c.118.1242.1612.2054.166.3767-.0132.1549-.0392.2902-.1151.4272-.172.0934-.347.1162-.5401.111-.1562-.0539-.1562-.0539-.2717-.1615-.0842-.1958-.1239-.3164-.0713-.5247.0911-.1547.1639-.2502.3295-.3263.19-.0156.3266.0278.5027.0976ZM93.7093 11.1158c.1144.0878.1574.1339.1866.2756.0006.332.0006.332-.1085.5048-.1767.1077-.3057.1309-.5129.1345-.1942-.0855-.2614-.1462-.3804-.3229-.0204-.1855-.0104-.299.0645-.4709.2256-.2773.4329-.2435.7507-.1211ZM86.9742.251205c.1954.143061.2626.218843.3057.457443-.0431.238601-.1103.314382-.3057.457442-.2007.06622-.2838.07381-.4756-.01682-.1223-.09081-.1223-.09081-.231-.198446-.025-.251648-.0364-.372046.0986-.588621.2009-.18763.351-.182234.608-.110998ZM82.7375.251076c.1716.148189.2123.23391.2445.457443-.0322.223534-.0729.309251-.2445.457441-.1834.05718-.1834.05718-.3805.05382-.2971-.15805-.2971-.15805-.3804-.322902-.0212-.222874-.0236-.339684.0985-.531441.2123-.204203.3864-.181475.6624-.114361ZM76.0023 6.81271c.1497.09663.246.16428.3261.3229.0234.20839.0172.29734-.1019.47426-.147.14983-.1928.16802-.4042.19172-.2004-.02018-.2004-.02018-.3566-.1379-.119-.15595-.1699-.22644-.1699-.42045.1465-.36979.3057-.47159.7065-.43053ZM86.9198 17.6237c.1497.0966.246.1643.3261.3229.0139.2103.0127.3611-.1087.5382-.2007.1325-.3649.1502-.5978.1076-.1622-.1071-.2502-.1822-.2976-.3734-.0155-.2132.0133-.3082.1379-.4877.2011-.1356.3012-.1456.5401-.1076ZM93.3832 6.77588c.1733.01462.2283.04421.3805.14463.1206.17918.1497.27658.1348.48772-.0473.18868-.1392.26637-.2979.37335-.2338.03722-.3375.02775-.5367-.10091-.1343-.13304-.1646-.18452-.1902-.36999.0352-.30221.1934-.51405.5095-.5348ZM82.6289 17.6236c.1817.065.2145.1034.3261.2691.0299.2619.04.3712-.1087.592-.1809.1194-.2793.1483-.4925.1335-.1905-.0468-.269-.1379-.377-.295-.0376-.2315-.0281-.3342.1019-.5314.1824-.1807.2962-.1833.5502-.1682Z" fill="#494848"/></g><defs><clipPath id="clip0_8325_2290"><path fill="#fff" d="M.612427.197388h163v27h-163z"/></clipPath></defs></svg>