<svg width="135" height="37" viewBox="0 0 135 37" fill="none" xmlns="http://www.w3.org/2000/svg"><g clip-path="url(#clip0_8325_2254)" fill="#6F6F6F"><path d="M34.0209 29.3919V9.09485h3.6343V29.3919h-3.6343ZM46.4785 29.6698c-1.2207 0-2.3212-.3089-3.3014-.9265-.9802-.6175-1.7477-1.4598-2.3025-2.5266-.5549-1.0668-.8324-2.2645-.8324-3.5934 0-1.3475.2775-2.5547.8324-3.6215.5548-1.0668 1.3223-1.9089 2.3025-2.5266.9802-.6176 2.0807-.9264 3.3014-.9264.9617 0 1.8217.1966 2.58.5896s1.3594.9451 1.8032 1.6563c.4624.6924.7121 1.4786.7491 2.3582v4.8848c-.037.8983-.2867 1.6937-.7491 2.3862-.4438.6925-1.0449 1.2446-1.8032 1.6564-.7583.393-1.6183.5895-2.58.5895Zm.6657-3.3969c1.0172 0 1.8403-.3369 2.4691-1.0107.6288-.6925.9433-1.5815.9433-2.667 0-.7111-.148-1.3381-.4439-1.8809-.2774-.5614-.6751-.9919-1.1929-1.2914-.4994-.3181-1.0912-.4772-1.7756-.4772-.6657 0-1.2575.1591-1.7754.4772-.4994.2995-.897.73-1.193 1.2914-.2773.5428-.4161 1.1698-.4161 1.8809 0 .73.1388 1.3757.4161 1.9372.296.5427.6936.9732 1.193 1.2913.5179.2994 1.1097.4492 1.7754.4492Zm3.2182 3.1161v-3.6495l.5826-3.3126-.5826-3.2566v-3.3408h3.6065V29.389h-3.6065ZM59.1539 29.3934V10.1912h3.6342v19.2022h-3.6342Zm-3.1349-10.331v-3.2285h9.904v3.2285h-9.904ZM76.9838 29.3919v-7.7763c0-.8047-.2496-1.4598-.7489-1.9651-.4994-.5054-1.1467-.758-1.942-.758-.5178 0-.9802.1122-1.3872.3369-.4068.2245-.7305.5427-.9709.9545-.2219.4117-.3329.8889-.3329 1.4317l-1.4148-.7299c0-1.0668.2218-1.9932.6657-2.7793.444-.8047 1.0542-1.4317 1.8311-1.8809.7952-.4491 1.7014-.6738 2.7186-.6738 1.0173 0 1.9143.2247 2.691.6738.7954.4492 1.4149 1.0668 1.8588 1.8528.4439.7862.6658 1.6938.6658 2.7232v8.5904h-3.6343Zm-9.0161 0V9.09485h3.6342V29.3919h-3.6342ZM87.7619 29.5031 82.158 15.8313h3.9393l3.7175 10.4434h-1.3317l3.8563-10.4434h3.9671l-5.9646 13.6438-2.58.028Zm-3.7175 5.5586 4.0781-8.7309 2.2194 3.1443-2.4414 5.5866h-3.8561ZM97.8219 29.389V15.8295h3.6341V29.389h-3.6341Zm3.6341-7.4955-1.415-.9545c.167-1.6657.648-2.9759 1.443-3.9304.795-.9732 1.942-1.4598 3.44-1.4598.647 0 1.23.1123 1.748.3369.517.2059.989.5521 1.414 1.0387l-2.274 2.6389c-.204-.2245-.453-.393-.749-.5053-.278-.1123-.601-.1684-.971-.1684-.777 0-1.415.2526-1.915.7579-.48.4866-.721 1.2353-.721 2.246ZM115.077 29.6716c-1.183 0-2.237-.2527-3.162-.758-.906-.5053-1.618-1.2072-2.136-2.1055-.518-.8984-.777-1.9371-.777-3.1162v-7.8606h3.662v7.7764c0 .5614.092 1.048.277 1.4599.185.393.463.6924.833.8983.37.2058.804.3088 1.303.3088.759 0 1.351-.2339 1.776-.7018.425-.468.638-1.123.638-1.9652v-7.7764h3.634v7.8606c0 1.1978-.259 2.2459-.777 3.1442-.499.8984-1.211 1.6002-2.136 2.1056-.906.4866-1.951.7299-3.135.7299ZM128.626 29.6988c-.758 0-1.507-.103-2.246-.3089-.722-.2058-1.388-.4866-1.998-.8422-.611-.3743-1.137-.8235-1.581-1.3476l2.163-2.2177c.462.524 1 .917 1.609 1.179.611.2621 1.286.3931 2.026.3931.591 0 1.035-.0842 1.331-.2527.315-.1685.472-.4211.472-.7579 0-.3744-.167-.6645-.499-.8704-.315-.2058-.73-.3742-1.249-.5053-.518-.1496-1.063-.3088-1.636-.4772-.555-.1871-1.092-.4211-1.609-.7018-.519-.2995-.944-.7019-1.276-1.2072-.316-.524-.472-1.1978-.472-2.0213 0-.861.203-1.6095.61-2.2459.425-.6364 1.026-1.1323 1.803-1.4879.777-.3555 1.692-.5334 2.746-.5334 1.11 0 2.109.1966 2.997.5896.906.393 1.655.9826 2.247 1.7687l-2.191 2.2177c-.407-.5053-.87-.8703-1.388-1.0949-.499-.2245-1.044-.3368-1.636-.3368-.537 0-.954.0842-1.249.2527-.277.1684-.416.4023-.416.7017 0 .3369.158.599.472.7862.332.187.758.3555 1.276.5053.518.1309 1.054.29 1.609.4772.573.1684 1.109.4117 1.609.7299.517.3182.933.7393 1.248 1.2633.333.5241.499 1.1979.499 2.0213 0 1.3288-.471 2.3862-1.415 3.1723-.943.7673-2.228 1.1511-3.856 1.1511ZM16.7534 21.0233c.6441-1.4839 2.0942-2.4421 3.6958-2.4421h7.4373l-4.7282 10.893h-10.073l3.6681-8.4509ZM11.6463 3.19921c.6404-1.49224 2.0949-2.457633 3.7025-2.457633h7.4253L10.4435 29.472H.370483L11.6463 3.19921Z"/></g><defs><clipPath id="clip0_8325_2254"><path fill="#fff" d="M.212524.056885h134v36h-134z"/></clipPath></defs></svg>