<svg width="697" height="109" viewBox="0 0 697 109" fill="none" xmlns="http://www.w3.org/2000/svg">
<path d="M122.961 31.9183C123.122 31.8843 123.285 31.8596 123.449 31.844C126.426 31.844 129.834 30.9633 132.266 32.1037C134.698 33.244 135.965 36.3405 137.693 38.6397C140.698 42.6356 143.646 46.6778 146.773 50.9053C150.838 45.4076 154.885 40.2158 158.585 34.8015C160.2 32.4467 161.936 31.3898 164.791 31.7513C166.685 31.868 168.587 31.868 170.481 31.7513V76.1689H162.284V44.7864L161.795 44.6103C161.138 45.4447 160.472 46.2698 159.824 47.1135C156.068 52.058 152.312 57.0026 148.557 61.9471C146.941 64.061 146.275 64.0702 144.717 61.9471C140.388 56.1435 136.069 50.3306 131.421 44.0819V76.104H122.961V31.9183Z" fill="#6F6F6F"/>
<path d="M219.326 31.5269C226.031 31.5269 232.584 31.5269 239.214 31.5269C241.24 31.4844 243.266 31.6247 245.265 31.9459C257.311 34.2354 259.811 46.1858 255.682 53.9295C254.015 57.0288 252.235 58.2199 246.212 60.5468L253.096 68.216L260.237 76.155C256.373 76.155 253.068 76.2109 249.763 76.0993C249.261 76.0993 248.75 75.2894 248.304 74.8055C244.706 70.8313 241.07 66.885 237.556 62.8364C236.673 61.6347 235.202 60.9916 233.702 61.1519C231.808 61.2822 229.914 61.1519 227.84 61.1519V75.9875H219.316L219.326 31.5269ZM227.754 53.6502C232.651 53.6502 237.3 53.8178 241.96 53.6502C243.908 53.6594 245.774 52.8731 247.109 51.479C248.445 50.085 249.131 48.2085 249.006 46.2975C248.854 42.3141 245.748 39.5033 241.43 39.4474C238.948 39.4474 236.477 39.4474 233.995 39.4474H227.802L227.754 53.6502Z" fill="#6F6F6F"/>
<path d="M564.202 75.9148H555.918V31.5503C557.956 31.5503 560.088 31.4485 562.192 31.6152C562.753 31.6614 563.315 32.4578 563.763 33.0042C570.233 41.0603 576.697 49.1257 583.155 57.2005C583.52 57.6449 583.913 58.0616 584.585 58.821V31.717H592.878V75.6648C589.391 76.6834 588.007 76.2574 585.81 73.4702L565.886 48.2552C565.436 47.6997 564.95 47.1626 564.175 46.2273L564.202 75.9148Z" fill="#6F6F6F"/>
<path d="M179.719 76.1689V31.5195H212.701V39.4812H187.987V49.6858H211.827V57.4887H187.968V67.9081H212.718V76.1689H179.719Z" fill="#6F6F6F"/>
<path d="M376.397 31.5195V39.4384H351.576V49.7349H375.522V57.5509H351.576V67.9129H376.305V76.1689H343.398V31.5195H376.397Z" fill="#6F6F6F"/>
<path d="M546.679 31.5195V39.4384H521.859V49.7349H545.804V57.5509H521.859V67.9036H546.596V76.1689H513.68V31.5195H546.679Z" fill="#6F6F6F"/>
<path d="M655.111 39.3828V49.6361H678.995V57.5368H655.129V67.9026H679.898V76.1689H647V31.5195H680V39.3828H655.111Z" fill="#6F6F6F"/>
<path d="M443.934 39.0637L436.998 42.6959C432.955 38.2051 428.041 36.8183 422.37 38.1108C421.216 38.3692 420.118 38.8392 419.132 39.4976C415.725 41.809 416.052 46.3847 419.918 47.8187C422.866 48.9131 426.122 49.1678 429.221 49.8848C431.842 50.3841 434.428 51.0587 436.961 51.9038C441.579 53.3858 444.784 57.6255 444.972 62.508C445.422 68.2346 443.624 73.0555 438.42 75.716C430.39 79.7822 422.089 79.7633 413.918 76.0084C410.426 74.3554 407.815 71.2586 406.758 67.5176C406.957 67.3248 407.174 67.1511 407.404 66.9986C409.37 65.9514 411.335 64.9232 413.395 63.8382C417.231 70.5177 423.194 71.8102 430.082 70.5932C431.321 70.359 432.512 69.9123 433.601 69.2724C437.738 66.8572 437.785 61.357 433.423 59.4324C430.371 58.0832 426.871 57.8568 423.549 56.9889C420.553 56.2058 417.4 55.6398 414.667 54.2623C407.18 50.4887 406.243 39.526 412.852 34.2333C419.459 28.9407 432.983 28.7897 439.638 34.2333C441.186 35.7339 442.622 37.3486 443.934 39.0637Z" fill="#6F6F6F"/>
<path d="M262.879 75.9851V31.8837H271.154V50.5374C274.715 46.6736 277.842 43.2811 280.961 39.8794C281.459 39.3341 281.901 38.7702 282.436 38.2341C284.465 36.0896 286.138 32.9837 288.636 32.0778C291.586 30.9964 295.212 31.8191 299.185 31.8191C295.606 35.6089 292.3 39.0938 289.012 42.5879C285.724 46.0819 282.436 49.576 278.96 53.2735L301.158 76.1515C297.269 76.1515 293.963 76.2162 290.655 76.0961C290.064 76.0961 289.416 75.3843 288.928 74.8851C283.529 69.339 278.137 63.7496 272.751 58.1171C272.394 57.7474 271.999 57.4147 271.333 56.7768V75.9851H262.879Z" fill="#6F6F6F"/>
<path d="M486.851 65.1326L492.562 70.6476C485.679 79.3772 467.61 79.8204 458.599 71.5431C449.222 62.9549 449.354 45.2881 458.806 36.3039C467.695 27.8193 484.723 28.3096 491.811 37.0298L486.625 42.4693C477.597 36.8131 468.81 37.2467 463.569 43.5724C458.608 49.5871 458.88 59.4668 464.066 65.076C469.467 70.8549 478.778 70.8738 486.851 65.1326Z" fill="#6F6F6F"/>
<path d="M634.772 65.0937L640.401 70.6929C633.157 79.4689 615.137 79.7894 606.234 71.3529C596.984 62.5769 597.284 44.959 606.835 36.1171C615.793 27.8314 632.877 28.4064 639.566 36.909L634.453 42.4705C625.757 36.8147 616.806 37.1824 611.525 43.4131C606.469 49.3894 606.591 59.1363 611.797 64.8958C617.154 70.825 626.366 70.9004 634.772 65.0937Z" fill="#6F6F6F"/>
<path d="M313.392 68.4688H336.797V76.1689H305.117V31.5195H313.392V68.4688Z" fill="#6F6F6F"/>
<path d="M497.84 31.5195H505.759V76.1689H497.84V31.5195Z" fill="#6F6F6F"/>
<path d="M94.4709 44.4656C93.7307 41.6176 92.6632 38.8624 91.2891 36.2539L84.7069 41.6986L69.6953 54.0982L76.2347 59.5242L87.1574 50.4872C87.3149 51.7459 87.3958 53.0128 87.3995 54.2812C87.4042 58.5319 86.5182 62.7377 84.7971 66.6338L91.3698 72.0833C95.7767 63.5575 96.873 53.7344 94.4519 44.4656H94.4709Z" fill="#6F6F6F"/>
<path d="M56.6491 65.7408L54.3461 63.8092L45.3717 56.2867L43.026 54.3173L28.0544 41.7545L21.5111 36.2539C20.1224 38.8903 19.0406 41.677 18.2869 44.5594C15.8401 53.9276 16.9058 63.8668 21.2832 72.5039L27.8692 66.9985C26.1767 63.0832 25.3056 58.8624 25.3098 54.5972C25.3134 53.2833 25.399 51.9708 25.5662 50.6675L36.4875 59.8131L38.8379 61.7827L47.8029 69.3051L50.1058 71.2366L56.6491 76.7278L63.2257 71.2319L65.6948 69.1627L59.1516 63.6764L56.6491 65.7408Z" fill="#6F6F6F"/>
<path d="M37.0984 30.2485C37.8639 29.6177 38.6609 29.0312 39.4893 28.4888C46.688 23.7136 55.5437 22.1446 63.9422 24.1562C72.3407 26.1677 79.5281 31.5794 83.7884 39.0991L90.2148 33.7159C84.3792 24.2781 74.8436 17.7367 63.9456 15.6951C53.0474 13.6535 41.7945 16.3005 32.9449 22.9872C32.1605 23.5785 31.4093 24.2029 30.6721 24.851C28.5675 26.7074 26.6667 28.7832 25.0018 31.0432L78.9308 76.3563C68.3852 87.137 51.6371 88.7993 39.1823 80.3015C38.3459 79.7339 37.5378 79.1236 36.7629 78.4802C33.8034 76.0075 31.3239 73.0104 29.4482 69.6391L23.0078 75.027C30.1641 86.7959 42.9313 93.9786 56.694 93.9786C70.4567 93.9786 83.2239 86.7959 90.3801 75.027L83.9443 69.6248L37.0984 30.2485Z" fill="#6F6F6F"/>
</svg>
