<svg width="206" height="80" viewBox="0 0 206 80" fill="none" xmlns="http://www.w3.org/2000/svg">
<path fill-rule="evenodd" clip-rule="evenodd" d="M200.832 20.748H184.822L175.777 34.9803L167.189 20.748H150.469L165.544 44.5114L150.469 66.7203L167.249 66.8343L200.832 20.748Z" fill="#6F6F6F"/>
<path fill-rule="evenodd" clip-rule="evenodd" d="M126.252 55.6631C120.313 55.6631 114.923 51.0021 114.923 43.7815C114.923 36.6527 120.313 31.8998 126.252 31.8998C131.916 31.8998 137.307 36.6527 137.307 43.7815C137.307 51.0021 131.916 55.6631 126.252 55.6631ZM126.251 19.6523C112.364 19.6523 100.852 29.3406 100.852 43.7812C100.852 58.3132 112.364 68.0015 126.251 68.0015C139.865 68.0015 151.376 58.3132 151.376 43.7812C151.376 29.3406 139.865 19.6523 126.251 19.6523Z" fill="#6F6F6F"/>
<path fill-rule="evenodd" clip-rule="evenodd" d="M180.539 59.4697L184.817 66.7215H201.628L188.971 48.1875L180.539 59.4697Z" fill="#6F6F6F"/>
<path fill-rule="evenodd" clip-rule="evenodd" d="M79.7487 8.90234V11.9916C79.7487 14.0615 78.9095 16.0887 77.4453 17.5528C75.9811 19.0175 73.9552 19.857 71.8856 19.857H60.4106C55.4922 19.8639 50.7331 21.8789 47.2974 25.3971C43.8611 21.8794 39.1025 19.8639 34.1831 19.857H22.7087C20.639 19.857 18.6131 19.0175 17.1489 17.5528C15.6853 16.0887 14.8456 14.0615 14.8456 11.9916V8.90234H4.34375V11.9916C4.34375 22.1216 12.5823 30.3631 22.7087 30.3631H34.1831C43.772 30.3631 46.9814 43.0985 47.0131 43.2272L47.2673 44.2746L47.6486 43.2663C47.6972 43.1375 52.6103 30.3631 60.4111 30.3631H71.8856C82.0124 30.3631 90.2505 22.1216 90.2505 11.9916V8.90234H79.7487Z" fill="#6F6F6F"/>
<path fill-rule="evenodd" clip-rule="evenodd" d="M59.6874 36.46L47.3157 57.1008L35.0575 36.5027L21.3203 36.4531L42.391 71.0133L44.0361 71.046C44.4908 71.055 44.9607 71.0587 45.4391 71.0587C46.0715 71.0587 46.7187 71.0529 47.3674 71.0466C47.9966 71.0408 48.6269 71.0349 49.2419 71.0349C49.6771 71.0349 50.1048 71.0381 50.5189 71.046L52.2415 71.0798L73.3359 36.4811L59.6874 36.46Z" fill="#6F6F6F"/>
</svg>
