<svg width="111" height="37" viewBox="0 0 111 37" fill="none" xmlns="http://www.w3.org/2000/svg"><g clip-path="url(#clip0_8325_2208)"><mask id="mask0_8325_2208" style="mask-type:luminance" maskUnits="userSpaceOnUse" x="0" y="0" width="111" height="36"><path d="M110.309.056885H.309082V35.6038H110.309V.056885Z" fill="#fff"/></mask><g mask="url(#mask0_8325_2208)"><path d="M19.4342 9.73153h.037c-.1792-.20742-.3081-.42824-.3852-.66096-.077-.23428-.1155-.4551-.1155-.66246 0-.56847.2-1.06233.5985-1.47711.3986-.41477.9201-.62213 1.5632-.62213.2844 0 .5615.05223.8312.15519.2711.1044.5082.29985.7141.58486.4104.51917.8046.99814 1.1794 1.43828.3719.44164.7379.88028 1.0994 1.32342.36.44158.72.88768 1.0801 1.33978.3615.4551.7601.94 1.1957 1.4592.7482-.9087 1.4994-1.8352 2.261-2.78109.7601-.94592 1.5127-1.8725 2.2595-2.78109.2074-.28501.4504-.48046.7349-.58486.2815-.10146.5674-.15519.849-.15519.6178 0 1.1275.20736 1.526.62219.3971.41622.5971.90859.5971 1.47706 0 .49237-.154.934-.4623 1.32341-.8756 1.06377-1.7261 2.12757-2.5484 3.18987-.8252 1.0638-1.6875 2.1381-2.5884 3.2272.8742 1.0638 1.7321 2.1142 2.5677 3.1511.8371 1.0385 1.6935 2.0874 2.5691 3.1511.3083.3879.4623.843.4623 1.3608 0 .5177-.2.9981-.5971 1.4398-.4.4416-.9082.6594-1.526.6594-.6179 0-1.1187-.2581-1.5839-.7774-.4104-.5191-.8061-.9981-1.1764-1.4397-.3734-.4417-.7335-.8743-1.0817-1.3025-.3467-.4283-.7097-.8684-1.0815-1.3234-.3749-.4521-.7676-.9385-1.1795-1.4592-.7467.9071-1.5053 1.8292-2.2772 2.7617-.772.934-1.5321 1.8546-2.2788 2.7616-.2059.2328-.4445.4208-.7141.564-.2697.1433-.5468.2134-.8312.2134-.6431 0-1.1646-.2193-1.5632-.6594-.3985-.4417-.5985-.9206-.5985-1.4398 0-.5193.1555-.9714.4622-1.3608.9024-1.1145 1.7454-2.1708 2.5307-3.1705.7837-.9966 1.6268-2.0544 2.5291-3.169l-5.0598-6.37827.0015.0015ZM38.4364 2.22534c0-.5953.1986-1.09512.5986-1.496471.3971-.40135.8801-.60277 1.4491-.60277.5689 0 1.0534.20142 1.4667.60277.4119.402841.6179.901171.6179 1.496471v1.05037c0 .57144-.2 1.05783-.5985 1.45918-.4001.40284-.8935.60277-1.4861.60277-.5423 0-1.0179-.19993-1.4298-.60277-.4104-.40135-.6164-.88774-.6164-1.45918V2.22534h-.0015Zm0 6.18288c0-.59533.1986-1.09368.5986-1.49649.3971-.40287.8801-.60275 1.4491-.60275.5689 0 1.0534.19988 1.4667.60275.4119.40281.6179.90116.6179 1.49649V23.8101c0 .5969-.2 1.0966-.5985 1.498-.4001.4013-.8935.6028-1.4861.6028-.5423 0-1.0179-.2-1.4298-.6028-.4104-.4014-.6164-.9011-.6164-1.498V8.40822h-.0015Z" fill="#494848"/><path d="M46.8542 13.5032c0-.9861.1882-1.9112.5586-2.7795.3749-.86836.889-1.63527 1.5468-2.29474.6564-.66096 1.4165-1.18019 2.2788-1.55614.8624-.37601 1.7972-.56398 2.8003-.56398s1.9054.18797 2.781.56398c.874.37595 1.6417.89518 2.2979 1.55614.6578.66096 1.172 1.42638 1.5455 2.29474.3734.8683.5588 1.7949.5588 2.7795v5.2116c0 .9878-.1854 1.9143-.5588 2.7826-.3735.8684-.8888 1.6337-1.5455 2.2932-.6545.6625-1.4163 1.1802-2.2787 1.5562-.8624.3759-1.7956.564-2.8002.564-.5423 0-1.0757-.0642-1.6031-.1925-.529-.1298-1.0105-.2999-1.4491-.5058v8.2911c0 .5967-.2044 1.0951-.6178 1.498-.4104.4013-.8875.6027-1.4268.6027-.5927 0-1.0875-.2014-1.4876-.6027-.4001-.4029-.6001-.9013-.6001-1.498V13.5032Zm4.1323 5.2116c0 .4163.086.8057.2519 1.1668.1674.364.3867.6804.6579.9533.2681.2716.5912.4864.9645.6416.3734.1552.766.2328 1.1779.2328.8505 0 1.5704-.2924 2.1633-.8758.5924-.5834.8872-1.2906.8872-2.1202v-5.2115c0-.4148-.0842-.8042-.2519-1.1668-.1656-.3625-.385-.6803-.6578-.9534-.2679-.2715-.5924-.4849-.9644-.6415-.3733-.1567-.766-.2343-1.1779-.2343-.8489 0-1.5705.2925-2.1632.8758-.5926.5834-.889 1.2892-.889 2.1202v5.2115l.0015.0015ZM63.6923 13.5032c0-.9861.1853-1.9112.5615-2.7795.3718-.86836.8877-1.63527 1.5439-2.29474.6567-.66096 1.4151-1.18019 2.2786-1.55614.8624-.37601 1.7947-.56398 2.8006-.56398 1.006 0 1.9052.18797 2.7797.56398.8756.37595 1.6412.89518 2.2996 1.55614.6545.66096 1.1687 1.42638 1.5438 2.29474.3718.8683.5583 1.7949.5583 2.7795v10.1517c0 .5968-.2057 1.0951-.616 1.4964-.4109.4029-.8877.6043-1.4284.6043-.2849 0-.5753-.0776-.8701-.2327-.2959-.1552-.5467-.3253-.754-.5059-1.1066.5969-2.2759.8938-3.5129.8938-.9795 0-1.9068-.188-2.7797-.564-.8772-.376-1.6428-.8937-2.2995-1.5562-.6562-.6595-1.1721-1.4248-1.5439-2.2932-.3745-.8683-.5615-1.7948-.5615-2.7826v-5.2116Zm4.1706 5.2116c0 .8296.2965 1.5368.8877 2.1201.594.5835 1.3024.8759 2.1263.8759.8239 0 1.523-.2715 2.1027-.8176.5808-.5431.8959-1.219.9493-2.0217v-5.3668c0-.4147-.0858-.8041-.253-1.1667-.1689-.3625-.3867-.6803-.6551-.9534-.2711-.2715-.5929-.4849-.9658-.6416-.3751-.1566-.7678-.2342-1.1781-.2342-.8503 0-1.5647.2924-2.1439.8758-.578.5834-.8701 1.2891-.8701 2.1201v5.2116-.0015ZM80.1045 13.5033c0-1.0116.1953-1.9575.5808-2.8393.3867-.88025.9124-1.63968 1.5823-2.27527.6694-.6341 1.4488-1.13993 2.3365-1.51738.8888-.376 1.8358-.56398 2.8385-.56398.1793 0 .5423.03877 1.0818.11637.5407.07909 1.1396.26557 1.7958.56398.6578.29991 1.3139.74603 1.969 1.3413.6578.59683 1.2045 1.42488 1.6417 2.48868.0506.1044.0902.2208.1172.3506.0253.1298.0385.2596.0385.3894 0 .5968-.1986 1.0966-.599 1.498-.3998.4028-.8959.6013-1.4872.6013-.4119 0-.7914-.1179-1.1396-.3492-.3465-.2342-.5984-.5445-.754-.9324-.2591-.5715-.643-1.025-1.1589-1.3608-.5153-.3372-1.0664-.5058-1.6593-.5058-.8503 0-1.5703.2925-2.1632.8758-.594.5834-.8876 1.2891-.8876 2.1202v5.2116c0 .4162.0819.8056.2507 1.1667.1656.364.3867.6803.6578.9534.2712.2715.5913.4864.9658.6415.3718.1552.7645.2328 1.1781.2328.5913 0 1.144-.1626 1.6594-.4864.5159-.3222.8992-.7833 1.1588-1.3786.1557-.364.3999-.6699.7348-.9146.3333-.2447.7216-.37 1.1583-.37.5913 0 1.088.2074 1.4878.6222.4004.4147.5984.9086.5984 1.477 0 .2089-.0633.467-.1936.7789-.5143 1.1652-1.1468 2.0544-1.8926 2.6632-.7452.6087-1.4663 1.0489-2.1631 1.3219-.6963.2715-1.2876.4222-1.7776.4476-.4879.0254-.7469.0373-.7706.0373-.9795 0-1.9068-.188-2.7813-.564-.8767-.376-1.6412-.8937-2.299-1.5562-.6551-.6594-1.1721-1.4248-1.5444-2.2932-.3746-.8683-.561-1.7948-.561-2.7825v-5.2116.0015ZM95.6331 2.34158c0-.5953.1985-1.09513.5984-1.496472.3971-.402843.8937-.604263 1.4877-.604263.5396 0 1.0164.20142 1.4267.604263.412.401342.6193.901172.6193 1.496472v9.21762c.9778-.7774 1.9558-1.56814 2.9328-2.37232.98-.80419 1.958-1.60837 2.938-2.41106.385-.31182.823-.467 1.314-.467.514 0 .976.19545 1.39.58336.412.38941.619.89374.619 1.51588 0 .31182-.053.60873-.156.89518-.103.28501-.284.53119-.542.73856l-5.214 4.2403c1.161 1.3995 2.279 2.7676 3.361 4.103 1.08 1.3353 2.213 2.7035 3.399 4.103.335.4163.502.8698.502 1.3607 0 .5207-.2.9922-.599 1.4204-.401.4267-.883.6401-1.449.6401-.668 0-1.209-.2447-1.622-.7386l-6.8353-8.3224-.0385.0388V23.81c0 .5968-.1996 1.0966-.6 1.498-.3999.4013-.8828.6028-1.4476.6028-.5643 0-1.056-.2-1.468-.6028-.4119-.4014-.6165-.9012-.6165-1.498V2.34158Z" fill="#7C7B7B"/><path d="M53.4617 28.9388c0-.1641.0563-.3029.1645-.4117.1111-.1105.2429-.1656.4-.1656.1571 0 .2904.0551.403.1656.1141.1088.1689.2491.1689.4117v5.9069c0 .1641-.0533.3029-.163.4117-.1111.1105-.2459.1657-.4089.1657-.1497 0-.2785-.0552-.3941-.1657-.1126-.1088-.1704-.2476-.1704-.4117v-5.9069ZM55.3749 32.0132c0-.2715.0506-.5281.154-.7669.104-.2387.2448-.449.4268-.6311.1793-.182.3883-.3252.627-.4282.2371-.1029.4945-.1551.77-.1551.2761 0 .5247.0522.7651.1551.2398.103.4515.2462.6308.4282.1821.1821.3229.3924.4268.6311.1023.2388.154.4954.154.7669v.4626c0 .1641-.0561.3029-.1661.4132-.1094.1105-.2425.1656-.3982.1656h-2.2434v.1388c0 .2298.0814.6759.2447.8355.1612.1627.357.2403.5852.2403.0831 0 .1821-.009.2915-.0314.1084-.0224.2151-.0925.3146-.2133.0413-.0508.0946-.103.1601-.1552.0632-.0552.1314-.0955.2057-.1238.0753-.0299.154-.0403.2398-.0388.0847.0044.1688.0388.2535.1029.1128.0791.1898.191.2299.3372.0385.1447 0 .2999-.1111.4655-.1556.2089-.3586.3939-.6077.561-.2492.1686-.5737.2521-.9763.2521-.27 0-.5263-.0507-.7661-.1551-.2415-.1045-.4521-.2462-.6314-.4282-.1821-.1806-.3229-.3924-.4263-.6311-.1039-.2387-.1545-.4954-.1545-.764v-1.4338h.0016Zm1.1484.1388h1.6682v-.1388c0-.1148-.0237-.2223-.0693-.3207-.0479-.1-.1067-.188-.181-.2626-.0742-.0746-.1628-.1328-.2667-.1776-.1007-.0432-.2107-.0641-.3229-.0641-.2343 0-.4312.0805-.5912.2417-.1584.1611-.2387.3536-.2387.5833v.1388h.0016ZM59.957 32.0132c0-.2715.05-.5281.1523-.7669.1051-.2387.2459-.449.4268-.6311.1793-.182.3894-.3252.6254-.4282.2387-.1029.495-.1551.7716-.1551.2772 0 .5247.0522.7645.1551.2415.103.4538.2462.6331.4282.1804.1821.3212.3924.4251.6311.1023.2388.1524.4954.1524.7669v2.7931c0 .1641-.0561.3013-.17.4133-.1116.1089-.2431.1656-.3927.1656-.0786 0-.1589-.0224-.2387-.0657-.083-.0418-.1512-.088-.2073-.1388-.3069.1642-.6281.2462-.9675.2462-.27 0-.5247-.0507-.7645-.1551-.2403-.1045-.4521-.2462-.633-.4282-.1804-.1806-.3212-.3924-.4268-.6311-.1007-.2387-.1524-.4954-.1524-.764v-1.4338l.0017-.0015Zm1.1467 1.4338c0 .2283.0831.4238.2442.5819.1634.1627.3586.2403.5852.2403.2272 0 .4197-.0746.5797-.2238.1601-.1492.2459-.3358.2607-.5565v-1.4757c0-.1148-.0236-.2223-.0715-.3207-.0456-.1-.105-.188-.1787-.2626-.0743-.0746-.1634-.1328-.2657-.1776-.1034-.0432-.2101-.0641-.3245-.0641-.2337 0-.4312.0805-.5912.2417-.1584.1611-.2382.3536-.2382.5833v1.4338ZM64.7184 28.9388c0-.1641.0534-.3029.1645-.4117.1094-.1105.2458-.1656.4075-.1656.1496 0 .2816.0551.3938.1656.1128.1088.1705.2491.1705.4117v2.5364c.2695-.2133.5396-.4296.8063-.6535.2712-.2208.539-.4416.8085-.6624.1067-.088.2272-.1298.3619-.1298.1408 0 .2695.0522.3823.1611.1127.1074.1688.2462.1688.4178 0 .0865-.0148.1686-.0418.2461-.028.0791-.077.1462-.1496.203l-1.4338 1.1667c.3201.385.6264.7609.9245 1.1295.2976.3655.6105.743.9361 1.1294.0919.1134.1381.2387.1381.3745 0 .1432-.055.273-.1645.3909-.1111.1179-.2431.1775-.4004.1775-.1837 0-.3316-.0671-.4455-.2028l-1.8821-2.2918-.0104.0105v1.9053c0 .1641-.0545.3029-.1645.4117-.1111.1105-.2425.1656-.3998.1656s-.2904-.0551-.4032-.1656c-.1138-.1088-.1688-.2476-.1688-.4117v-5.9069l.0016-.0015ZM75.0281 28.9388c0-.1641.0561-.3029.1705-.4117.1127-.1105.2475-.1656.4031-.1656.1551 0 .2904.0551.4043.1656.1138.1088.1705.2491.1705.4117v4.5059c0 .27-.0506.5252-.1557.7639-.1023.2387-.2431.4506-.4251.6311-.1793.182-.3911.3253-.6314.4282-.2398.1045-.4961.1552-.7662.1552-.2695 0-.5329-.0507-.77-.1552-.237-.1044-.446-.2462-.627-.4282-.182-.1805-.3228-.3924-.4268-.6311-.1006-.2387-.154-.4954-.154-.7639v-1.4338c0-.2716.0534-.5282.154-.7669.104-.2388.2448-.4491.4268-.6312.1793-.182.3911-.3252.6325-.4281.2404-.103.4967-.1552.7645-.1552.1496 0 .2921.0208.4312.0582.1381.0402.2712.088.3988.1462v-1.2951Zm-1.6682 4.5059c0 .2282.0798.4237.2398.5819.1584.1626.3603.2402.6001.2402.2398 0 .4207-.0776.5852-.2402.1633-.1597.2447-.3551.2447-.5819v-1.4338c0-.2298-.0803-.4237-.2387-.5834-.16-.1611-.3569-.2417-.5912-.2417-.1128 0-.2206.0209-.3229.0641-.1039.0433-.1925.103-.2667.1776-.0743.0746-.1348.1626-.181.2626-.0456.0984-.0693.2059-.0693.3208v1.4338ZM76.8998 32.0132c0-.2715.0506-.5281.1545-.7669.1034-.2387.2442-.449.4252-.6311.1793-.182.3894-.3252.6281-.4282.237-.1029.4933-.1551.7705-.1551.2767 0 .5242.0522.7645.1551.2415.103.4516.2462.6325.4282.181.1821.3218.3924.4241.6311.1017.2388.1523.4954.1523.7669v.479c0 .1641-.055.3014-.1644.4117-.1084.112-.2431.1657-.3971.1657h-2.2435v.3759c0 .2283.082.4238.2448.5819.1628.1627.3553.2403.5835.2403.0864 0 .1826-.009.2921-.0314.1094-.0223.215-.0925.314-.2133.0429-.0507.0952-.103.1584-.1552.0655-.0552.1337-.0955.2079-.1238.0754-.0299.154-.0403.2382-.0388.0858.0044.1721.0388.2563.1029.1127.0791.1881.191.2282.3372.0374.1448.0017.2999-.1111.4655-.1556.2089-.3586.3939-.6061.561-.2486.1686-.5731.2521-.9779.2521-.2695 0-.5241-.0507-.7645-.1551-.2414-.1044-.4532-.2462-.6325-.4282-.1809-.1805-.3228-.3924-.4251-.6311-.104-.2387-.154-.4954-.154-.764v-1.4337l.0011.0014Zm1.1484.1388h1.6698v-.1388c0-.1148-.0237-.2223-.071-.3207-.0445-.1-.105-.188-.1793-.2626-.0742-.0746-.1628-.1328-.2667-.1776-.1023-.0432-.2118-.0641-.3229-.0641-.2343 0-.4301.0805-.5896.2417-.16.1611-.2387.3536-.2387.5833v.1388h-.0016ZM81.5332 29.0168c0-.1641.0567-.3013.1661-.4117.1084-.1104.2431-.1656.3987-.1656.1551 0 .2904.0552.4043.1656.1111.1104.1689.2476.1689.4117v1.0579h1.7116c.1628 0 .2992.0567.4103.1671.1094.1119.1627.2492.1627.4118 0 .1492-.0533.2835-.1627.3968-.1111.1149-.2475.1716-.4103.1716h-1.7116v2.2276c0 .1134.0236.2208.0698.3208.0446.1.1051.1865.1804.2611.0743.0746.1601.1343.2657.176.1034.0433.21.0642.3228.0642.1628 0 .3157-.0433.4576-.1328.1392-.0895.2459-.2148.3174-.379.0429-.0999.111-.1835.2029-.2521.0918-.0672.1969-.103.3185-.103.1628 0 .2992.0582.4103.1716.11.1149.1644.2507.1644.4073 0 .0567-.0176.1299-.0533.2134-.1436.3208-.3168.5654-.5198.734-.2062.1672-.4031.2895-.5973.3641-.1908.0746-.3525.1149-.4873.1223-.1347.0075-.2046.0105-.2134.0105-.2684 0-.523-.0507-.7645-.1552-.2403-.1044-.4521-.2462-.6297-.4282-.1821-.1805-.3229-.3924-.4268-.6311-.104-.2387-.1557-.4953-.1557-.7639v-4.4328ZM86.0186 32.0132c0-.2715.0506-.5281.1545-.7669.1007-.2387.2426-.449.4252-.6311.1793-.182.3894-.3252.6281-.4282.237-.1029.4933-.1551.7705-.1551.2772 0 .5242.0522.7645.1551.2431.103.4532.2462.6342.4282.1793.1821.3212.3924.4235.6311.1039.2388.154.4954.154.7669v.4626c0 .1641-.0545.3029-.1656.4132-.1083.1105-.2431.1656-.3971.1656H87.167v.1388c0 .2298.0814.6759.2431.8355.1644.1627.3586.2403.5852.2403.0847 0 .182-.009.292-.0314.1111-.0224.2162-.0925.3141-.2133.0429-.0508.0962-.103.1584-.1552.0654-.0552.1347-.0955.209-.1238.0742-.0299.154-.0403.2387-.0388.0841.0044.1699.0388.253.1029.1144.0791.1914.191.2299.3372.0368.1447.0016.2999-.1128.4655-.1556.2089-.3569.3939-.6061.561-.2458.1686-.5731.2521-.9762.2521-.2684 0-.5247-.0507-.7645-.1551-.2415-.1045-.4532-.2462-.6325-.4282-.181-.1806-.3234-.3924-.4252-.6311-.1039-.2387-.1545-.4954-.1545-.764v-1.4338Zm1.1467.1388h1.6671v-.1388c0-.1148-.0237-.2223-.0682-.3207-.0446-.1-.1051-.188-.1793-.2626-.0754-.0746-.1628-.1328-.2651-.1776-.104-.0432-.2101-.0641-.3245-.0641-.2343 0-.4296.0805-.5896.2417-.1601.1611-.2387.3536-.2387.5833v.1388h-.0017ZM90.5873 32.0132c0-.279.0544-.5401.16-.7833.1067-.2432.2519-.4506.4367-.6251.1837-.1746.3988-.3148.643-.4178.2447-.1029.5054-.1551.781-.1551.0489 0 .1479.0104.2964.0328.1496.0194.3141.0731.495.1551.1804.0821.3614.2045.5423.3686.1804.1641.33.3924.4516.6863.0148.0269.0253.0597.0341.097.0044.0343.0077.0701.0077.1059 0 .1641-.0534.3014-.1634.4118-.1094.1104-.2475.1656-.4086.1656-.1144 0-.2178-.0328-.313-.097-.0962-.0641-.1644-.1492-.2073-.2566-.071-.1567-.1777-.2805-.3201-.3745-.1408-.0925-.2932-.1387-.456-.1387-.2343 0-.4328.0805-.5973.2417-.1617.1611-.2431.3536-.2431.5833v1.4338c0 .1135.0226.2209.0682.3208.0446.1.1067.1865.181.2611.0753.0746.1628.1343.2667.1761.1007.0432.2101.0642.3245.0642.1628 0 .3141-.0433.456-.1328.1424-.0895.2491-.2149.3201-.379.0429-.1.11-.1835.2002-.2521.0918-.0672.1969-.103.3201-.103.1611 0 .2992.0582.4086.1716.11.1148.1634.2506.1634.4073 0 .0567-.0165.1298-.0523.2134-.1419.3207-.3151.5654-.5197.734-.2063.1671-.4032.2895-.5957.3641-.1914.0746-.3525.1148-.4889.1223-.1337.0074-.2074.0104-.2118.0104-.27 0-.5263-.0507-.7645-.1551-.2431-.1045-.4521-.2462-.633-.4282-.1821-.1806-.3229-.3924-.4268-.6311-.1018-.2387-.1551-.4954-.1551-.764v-1.4338ZM95.0844 29.0168c0-.1641.0561-.3013.1644-.4117.1111-.1104.2426-.1656.3999-.1656.1573 0 .2904.0552.4031.1656.1139.1104.1705.2476.1705.4117v1.0579h1.7127c.1628 0 .2976.0567.4076.1671.1094.1119.1655.2492.1655.4118 0 .1492-.0561.2835-.1655.3968-.11.1149-.2464.1716-.4076.1716h-1.7127v2.2276c0 .1134.0237.2208.0693.3208.0446.1.1067.1865.181.2611.0742.0746.1628.1343.2651.176.1023.0433.2106.0642.3228.0642.1634 0 .3174-.0433.4582-.1328.1408-.0895.2475-.2148.3201-.379.0429-.0999.1094-.1835.1996-.2521.0919-.0672.1975-.103.3201-.103.1628 0 .3009.0582.4076.1716.1111.1149.1661.2507.1661.4073 0 .0567-.0165.1299-.0534.2134-.1408.3208-.3157.5654-.5203.734-.2046.1672-.4031.2895-.594.3641-.1914.0746-.3542.1149-.4889.1223-.1348.0075-.2046.0105-.2134.0105-.2684 0-.5231-.0507-.7645-.1552-.2415-.1044-.4521-.2462-.6342-.4282-.1793-.1805-.3228-.3924-.424-.6311-.1034-.2387-.1551-.4953-.1551-.7639v-4.4328ZM99.656 28.908c0-.1641.0534-.3014.1645-.4117.1111-.109.2435-.1672.3975-.1672.154 0 .29.0567.405.1672.114.1103.171.2476.171.4117v.2895c0 .1566-.057.2894-.166.3998-.11.1119-.246.1657-.41.1657-.149 0-.2793-.0553-.3915-.1657-.1144-.1089-.1705-.2417-.1705-.3998v-.2895Zm0 1.7024c0-.1641.0534-.3014.1645-.4118.1111-.1119.2435-.1656.3975-.1656.154 0 .29.0552.405.1656.114.1119.171.2477.171.4118v4.2373c0 .1641-.057.3028-.166.4118-.11.1104-.246.1656-.41.1656-.149 0-.2793-.0552-.3915-.1656-.1144-.109-.1705-.2477-.1705-.4118v-4.2373ZM101.547 32.0132c0-.2715.052-.5281.154-.7669.103-.2387.244-.449.426-.6311.18-.182.389-.3252.627-.4282.237-.1029.495-.1551.771-.1551.275 0 .526.0522.765.1551.242.103.453.2462.634.4282.18.1821.322.3924.425.6311.1.2388.152.4954.152.7669v1.4338c0 .2701-.052.5253-.152.764-.103.2387-.245.4505-.425.6311-.181.182-.389.3252-.629.4282-.236.1044-.493.1551-.77.1551s-.523-.0507-.765-.1551c-.241-.1045-.452-.2462-.633-.4282-.182-.1806-.323-.3924-.426-.6311-.102-.2387-.154-.4954-.154-.764v-1.4338Zm1.15 1.4338c0 .2283.081.4238.243.5819.162.1627.358.2403.583.2403.24 0 .442-.0776.6-.2403.16-.1596.24-.3551.24-.5819v-1.4338c0-.1148-.025-.2223-.069-.3207-.046-.1-.105-.188-.18-.2626s-.162-.1328-.268-.1776c-.101-.0432-.21-.0641-.323-.0641-.232 0-.429.0805-.589.2417-.16.1611-.239.3536-.239.5833v1.4338h.002ZM106.201 32.0132c0-.2715.051-.5281.156-.7669.104-.2387.243-.449.425-.6311.181-.182.392-.3252.629-.4282.237-.1029.496-.1551.77-.1551s.523.0522.765.1551c.24.103.451.2462.631.4282.181.1821.323.3924.424.6311.103.2388.155.4954.155.7669v2.8349c0 .1641-.058.3028-.169.4117-.114.1104-.249.1656-.404.1656-.156 0-.291-.0552-.399-.1656-.111-.1089-.164-.2476-.164-.4117v-2.8349c0-.1148-.026-.2223-.07-.3207-.046-.1-.105-.188-.181-.2626-.074-.0746-.161-.1328-.266-.1776-.101-.0432-.21-.0641-.323-.0641-.235 0-.431.0805-.596.2417-.163.1611-.243.3536-.243.5833v2.8349c0 .1641-.059.3028-.172.4117-.114.1104-.243.1656-.391.1656-.165 0-.3-.0552-.41-.1656-.112-.1089-.167-.2476-.167-.4117v-2.8349Z" fill="#494848"/><path fill-rule="evenodd" clip-rule="evenodd" d="M18.51 4.86147c.1608-.12352.3152-.2421.4529-.36938h.0015c.9927-.91908.806-2.12163.6282-2.93477-.4548-2.096266-4.2893-2.267848-4.2893 1.24433 0 .07647.0003.1537.0005.23143.0053 1.47669.0112 3.13339-1.8496 3.19721-1.4438.04885-2.7587.03562-3.94965.02364C3.13021 6.18981.309082 6.16143.309082 15.8791c0 7.1004.746748 10.1829 7.473398 10.0575.38195-.0072.75375-.012 1.11507-.0168 5.11345-.0672 8.12885-.1069 8.12885-6.2495 0-.8927.0096-1.8167.0193-2.7529.0279-2.6923.0568-5.4855-.1378-7.92541-.217-2.7333.777-3.4968 1.6021-4.13052ZM4.19267 12.2071c-.26373.6118-.39412 1.2652-.39412 1.9575v3.6704c0 .6937.13187 1.3458.39412 1.9575.26373.6147.62673 1.1503 1.08901 1.6173.46227.4655 1.00159.831 1.61797 1.0952.61485.264 1.25048.3968 1.95723.3968s1.36162-.1328 1.97062-.3968c.6075-.2656 1.1423-.6297 1.606-1.0952.4608-.4685.8239-1.0041 1.0861-1.6173.2623-.6117.3941-1.2638.3941-1.9575v-3.6704c0-.6938-.1318-1.3457-.3941-1.9575-.2608-.6102-.6253-1.1503-1.0861-1.6158-.4637-.464-1.003-.82956-1.6194-1.09364-.6163-.26407-1.25047-.39688-1.95722-.39688s-1.3646.13281-1.97059.39688c-.60896.26408-1.14234.62814-1.60461 1.09364-.46376.4655-.82528 1.0056-1.08901 1.6158Zm3.16926 7.1199c-.41784-.4103-.6253-.9072-.6253-1.492l-.00148-.0015v-3.6703c0-.5834.20449-1.0818.61044-1.4921.40893-.4102.90976-.6162 1.50981-.6162.28891 0 .566.0553.82824.1657.26373.1089.49046.2596.68156.452.1911.191.3452.4163.4623.6715.1185.2551.1763.5296.1763.8205v3.6704c0 .5848-.203 1.0817-.6119 1.492-.40603.4103-.9216.6162-1.53502.6162-.5808 0-1.07866-.2059-1.49495-.6162Z" fill="#6F6F6F"/></g></g><defs><clipPath id="clip0_8325_2208"><path fill="#fff" d="M.309082.056885h110v36h-110z"/></clipPath></defs></svg>