<svg width="87" height="28" viewBox="0 0 87 28" fill="none" xmlns="http://www.w3.org/2000/svg"><g clip-path="url(#clip0_8325_2199)" fill="#6F6F6F"><path d="m23.498 20.2373-.0159.034c-.4836 1.0901-1.2228 1.9828-2.1199 2.6379-.2124-2.1258-1.4532-4.0928-3.4375-5.1556L4.53189 11.7823C1.21645 10.3047-.281943 6.41829 1.1735 3.09155l.01356-.03171C1.67297 1.96755 2.41877 1.07241 3.31599.412964 3.55105 2.68818 4.96128 4.77985 7.19417 5.77696L20.1395 11.5489c3.3155 1.4775 4.8115 5.3594 3.3585 8.6884ZM18.3709 2.7542c-.8633.49981-.8633 1.74931 0 2.24912l3.7402 2.16532c.8633.49981 1.9425-.12494 1.9425-1.12454V1.71343c0-.999615-1.0792-1.624368-1.9425-1.124552L18.3709 2.7542ZM6.3 20.5592c.86332-.4998.86332-1.7493 0-2.2491l-3.74027-2.1653c-.86334-.4998-1.942542.1249-1.942542 1.1245v4.3306c0 .9996 1.079202 1.6244 1.942542 1.1246L6.3 20.5592ZM37.1907 22.5864h-3.401v-.6878c-.4287.4299-1.7148.917-3.1152.917-2.572 0-4.744-1.4901-4.744-4.1552 0-2.4358 2.172-4.0979 4.9442-4.0979 1.1145 0 2.4005.3725 2.915.7451v-.9457c0-1.089-.6573-1.9773-2.0863-1.9773-1.0003 0-1.6004.4585-1.8862 1.2036h-3.3723c.3715-2.3212 2.4579-4.09797 5.3729-4.09797 3.4009 0 5.3729 1.86267 5.3729 4.92897v8.1672Zm-3.401-3.4961v-.9171c-.3143-.6877-1.286-1.1176-2.3149-1.1176-1.1146 0-2.2577.4872-2.2577 1.5761 0 1.1177 1.1431 1.5762 2.2577 1.5762 1.0289 0 2.0006-.4299 2.3149-1.1176ZM40.7308 18.7177v-6.0752h-1.9433V9.7768h1.9433V6.30933h3.5152V9.7768h2.8008v2.8657H44.246v5.6167c0 1.003.5431 1.4615 1.4576 1.4615.5429 0 1.143-.172 1.5432-.4299v3.1522c-.4857.2581-1.3432.4012-2.2863.4012-2.6007 0-4.2297-1.2895-4.2297-4.1265ZM60.104 22.5864h-3.4007v-.6878c-.4288.4299-1.7148.917-3.1152.917-2.5721 0-4.7442-1.4901-4.7442-4.1552 0-2.4358 2.1721-4.0979 4.9441-4.0979 1.1147 0 2.4007.3725 2.9153.7451v-.9457c0-1.089-.6573-1.9773-2.0864-1.9773-1.0002 0-1.6004.4585-1.8861 1.2036h-3.3724c.3716-2.3212 2.4577-4.09797 5.3729-4.09797 3.4008 0 5.3727 1.86267 5.3727 4.92897v8.1672Zm-3.4007-3.4961v-.9171c-.3144-.6877-1.2861-1.1176-2.3149-1.1176-1.1147 0-2.258.4872-2.258 1.5761 0 1.1177 1.1433 1.5762 2.258 1.5762 1.0288 0 2.0005-.4299 2.3149-1.1176ZM67.9657 27.3148h-3.4866l1.8576-4.671-4.887-12.86694h3.7439l2.9437 8.51104 2.915-8.51104h3.5723L67.9657 27.3148ZM86.367 22.5864h-3.401v-.6878c-.4287.4299-1.7148.917-3.1152.917-2.5721 0-4.744-1.4901-4.744-4.1552 0-2.4358 2.1719-4.0979 4.9442-4.0979 1.1144 0 2.4007.3725 2.915.7451v-.9457c0-1.089-.6573-1.9773-2.0863-1.9773-1.0003 0-1.6004.4585-1.8862 1.2036h-3.3724c.3716-2.3212 2.4579-4.09797 5.373-4.09797 3.4009 0 5.3729 1.86267 5.3729 4.92897v8.1672Zm-3.401-3.4961v-.9171c-.3144-.6877-1.286-1.1176-2.3149-1.1176-1.1147 0-2.2577.4872-2.2577 1.5761 0 1.1177 1.143 1.5762 2.2577 1.5762 1.0289 0 2.0005-.4299 2.3149-1.1176Z"/></g><defs><clipPath id="clip0_8325_2199"><path fill="#fff" d="M.422119.412354h86v27h-86z"/></clipPath></defs></svg>