<svg width="84" height="24" viewBox="0 0 84 24" fill="none" xmlns="http://www.w3.org/2000/svg">
<g clip-path="url(#clip0_10816_7099)">
<path d="M24.7 7.1C20.3 7.1 16.7 10.7 16.7 15.1C16.7 19.5 20.3 23.1 24.7 23.1C29.1 23.1 32.7 19.5 32.7 15.1C32.7 10.7 29.1 7.1 24.7 7.1ZM28.6 15C28.6 17.2 26.9 19 24.8 19C22.7 19 21 17.2 21 15C21 12.8 22.7 11 24.8 11C26.9 11 28.6 12.8 28.6 15ZM52.7 7.4C52.6 7.3 52.5 7.3 52.4 7.3H49.2C49 7.3 48.8 7.5 48.8 7.7V22.2C48.8 22.3 48.8 22.4 48.9 22.5C49 22.6 49.1 22.6 49.2 22.6H52.4C52.6 22.6 52.8 22.4 52.8 22.2V7.7C52.8 7.6 52.8 7.5 52.7 7.4ZM50.8 5.4C52 5.4 53 4.4 53 3.2C53.1 2 52 1 50.8 1C49.6 1 48.6 2 48.6 3.2C48.6 4.5 49.6 5.4 50.8 5.4ZM46.5 1.3H34.8C34.6 1.3 34.4 1.5 34.4 1.7V22.2C34.4 22.3 34.4 22.4 34.5 22.5C34.6 22.6 34.7 22.6 34.8 22.6H38C38.2 22.6 38.4 22.4 38.4 22.2V13.9H45.6C45.7 13.9 45.8 13.9 45.9 13.8C46 13.7 46 13.6 46 13.5V10.5C46 10.3 45.8 10.1 45.6 10.1H38.4V5.1H46.5C46.6 5.1 46.7 5.1 46.8 5C46.9 4.9 46.9 4.8 46.9 4.7V1.7C46.9 1.5 46.7 1.3 46.5 1.3ZM9.2 10.2C6 8.8 5 8.2 5 7C5 5.4 6.5 4.9 7.9 4.9C9.4 4.9 11 5.7 11 7.9C11 8.1 11.1 8.2 11.3 8.2H14.8C14.9 8.1 15 8 15 7.9C15 3.9 12.1 1 7.9 1C3.7 1 1 3.4 1 7C1 11.3 4.2 12.6 7.3 13.8L7.5 13.9C10.4 15 11.4 15.5 11.4 16.9C11.4 18.8 9.4 19.1 8.3 19.1C6.2 19.1 4.6 17.6 4.6 15.6V15.4C4.6 15.2 4.5 15.1 4.3 15.1H0.8C0.7 15.1 0.5 15.2 0.5 15.4V15.7C0.5 20.1 3.7 23.1 8.2 23.1C12.5 23.1 15.4 20.6 15.4 17C15.5 13.3 13.6 12 9.2 10.2ZM83.5 22C83.5 22.6 83.1 23 82.5 23C81.9 23 81.5 22.6 81.5 22C81.5 21.4 81.9 21 82.5 21C83.1 21 83.5 21.4 83.5 22ZM81.7 22C81.7 22.5 82 22.8 82.5 22.8C83 22.8 83.3 22.5 83.3 22C83.3 21.5 83 21.2 82.5 21.2C82 21.2 81.7 21.5 81.7 22ZM82.9 21.8C82.9 21.9 82.8 22 82.7 22.1L82.9 22.5H82.6L82.4 22.1H82.3V22.5H82.1V21.5H82.5C82.7 21.5 82.9 21.6 82.9 21.8ZM82.4 21.7V22H82.5C82.6 22 82.7 21.9 82.7 21.9C82.7 21.8 82.6 21.8 82.5 21.8H82.4V21.7ZM78.3 1.9C79.7 1.9 80.8 3 80.8 4.4C80.8 5.8 79.7 6.9 78.3 6.9C76.9 6.9 75.8 5.8 75.8 4.4C75.8 3 76.9 1.9 78.3 1.9ZM78.3 1C76.4 1 74.8 2.6 74.8 4.5C74.8 6.4 76.4 8 78.3 8C80.2 8 81.8 6.4 81.8 4.5C81.8 2.6 80.2 1 78.3 1Z" fill="#6F6F6F"/>
<path d="M79.9658 15.0653C81.664 14.1418 82.2919 12.0166 81.3685 10.3185C80.445 8.62031 78.3198 7.99232 76.6216 8.9158C74.9235 9.83927 74.2955 11.9645 75.219 13.6626C76.1424 15.3608 78.2677 15.9888 79.9658 15.0653Z" fill="#6F6F6F"/>
<path d="M79.958 22.5673C81.6561 21.6438 82.2841 19.5185 81.3607 17.8204C80.4372 16.1223 78.312 15.4943 76.6138 16.4177C74.9157 17.3412 74.2877 19.4665 75.2112 21.1646C76.1346 22.8627 78.2599 23.4907 79.958 22.5673Z" fill="#6F6F6F"/>
<path d="M70.7969 9.5C71.4969 9.5 72.0969 9.8 72.5969 10.2C73.0969 10.7 73.2969 11.3 73.2969 12C73.2969 13.4 72.1969 14.5 70.7969 14.5C70.0969 14.5 69.4969 14.2 68.9969 13.8C68.4969 13.3 68.2969 12.7 68.2969 12C68.1969 10.6 69.3969 9.5 70.7969 9.5ZM70.7969 8.5C68.8969 8.5 67.2969 10.1 67.2969 12C67.2969 13.9 68.8969 15.5 70.7969 15.5C72.6969 15.5 74.2969 13.9 74.2969 12C74.2969 10.1 72.6969 8.5 70.7969 8.5Z" fill="#6F6F6F"/>
<path d="M66.474 13.3888C67.2568 11.6214 66.4587 9.55403 64.6913 8.77117C62.924 7.98831 60.8566 8.78642 60.0737 10.5538C59.2909 12.3212 60.089 14.3885 61.8564 15.1714C63.6237 15.9543 65.6911 15.1562 66.474 13.3888Z" fill="#6F6F6F"/>
<path d="M73.9896 5.89269C74.7725 4.12531 73.9743 2.05794 72.207 1.27508C70.4396 0.492222 68.3722 1.29033 67.5894 3.0577C66.8065 4.82507 67.6046 6.89245 69.372 7.67531C71.1394 8.45817 73.2067 7.66006 73.9896 5.89269Z" fill="#6F6F6F"/>
<path d="M66.4896 5.88292C67.2725 4.11555 66.4743 2.04817 64.707 1.26531C62.9396 0.482453 60.8722 1.28056 60.0894 3.04794C59.3065 4.81531 60.1046 6.88268 61.872 7.66554C63.6394 8.4484 65.7067 7.65029 66.4896 5.88292Z" fill="#6F6F6F"/>
<path d="M73.974 20.9044C74.7568 19.137 73.9587 17.0697 72.1913 16.2868C70.424 15.5039 68.3566 16.302 67.5737 18.0694C66.7909 19.8368 67.589 21.9042 69.3564 22.687C71.1237 23.4699 73.1911 22.6718 73.974 20.9044Z" fill="#6F6F6F"/>
<path d="M63.2969 17C63.9969 17 64.5969 17.3 65.0969 17.7C65.5969 18.2 65.7969 18.8 65.7969 19.5C65.7969 20.9 64.6969 22 63.2969 22C61.8969 22 60.7969 20.9 60.7969 19.5C60.6969 18.1 61.8969 17 63.2969 17ZM63.2969 16C61.3969 16 59.7969 17.6 59.7969 19.5C59.7969 21.4 61.3969 23 63.2969 23C65.1969 23 66.7969 21.4 66.7969 19.5C66.7969 17.6 65.1969 16 63.2969 16Z" fill="#6F6F6F"/>
</g>
<defs>
<clipPath id="clip0_10816_7099">
<rect width="84" height="24" fill="white"/>
</clipPath>
</defs>
</svg>
