<svg width="98" height="36" viewBox="0 0 98 36" fill="none" xmlns="http://www.w3.org/2000/svg"><g clip-path="url(#clip0_8325_2244)" fill="#6F6F6F"><path d="M25.9957 28.4277c-1.3192 0-2.5026-.2336-3.5502-.7006-1.0476-.4865-1.8818-1.1384-2.5026-1.9557-.6014-.8173-.9312-1.7221-.9894-2.7146h4.1031c.0776.6228.3783 1.1384.9021 1.5471.5432.4086 1.2125.6129 2.0079.6129.776 0 1.3774-.1556 1.8042-.467.4462-.3113.6693-.7102.6693-1.1967 0-.5254-.2716-.9146-.8148-1.1676-.5238-.2724-1.3677-.5643-2.5317-.8757-1.2028-.2919-2.1922-.5935-2.9682-.9048-.7566-.3114-1.4162-.7882-1.9788-1.4303-.5432-.6422-.8148-1.5081-.8148-2.5979 0-.8951.2522-1.7124.7566-2.4518.5238-.7395 1.261-1.3233 2.2116-1.7514.97-.4281 2.1049-.6422 3.4047-.6422 1.9206 0 3.4532.4865 4.5978 1.4595 1.1446.9535 1.7751 2.2476 1.8915 3.8822h-3.8994c-.0582-.6422-.3298-1.1481-.8148-1.5179-.4656-.3892-1.0961-.5838-1.8915-.5838-.7372 0-1.3095.1363-1.7169.4087-.388.2724-.582.6519-.582 1.1384 0 .5448.2716.9632.8148 1.2551.5432.2724 1.3871.5546 2.5317.8465 1.164.2919 2.1243.5935 2.8809.9049.7566.3113 1.4065.7978 1.9497 1.4594.5626.6422.8536 1.4984.873 2.5687 0 .934-.2619 1.7708-.7857 2.5102-.5044.7395-1.2416 1.3233-2.2116 1.7514-.9506.4086-2.0661.613-3.3465.613ZM32.7444 20.0212c0-1.6346.3201-3.0844.9603-4.3492.6596-1.2649 1.5423-2.2379 2.6481-2.9189 1.1252-.6811 2.3765-1.0217 3.7539-1.0217 1.2028 0 2.2504.2433 3.1428.7298.9118.4865 1.6393 1.0994 2.1825 1.8389v-2.306h4.1031V28.165H45.432v-2.3644c-.5238.759-1.2513 1.3914-2.1825 1.8973-.9118.4865-1.9691.7298-3.1719.7298-1.358 0-2.5996-.3503-3.7248-1.0509-1.1058-.7005-1.9885-1.6832-2.6481-2.9481-.6402-1.2843-.9603-2.7535-.9603-4.4075Zm12.6876.0584c0-.9925-.194-1.839-.582-2.5395-.388-.72-.9118-1.2649-1.5714-1.6346-.6596-.3892-1.3677-.5838-2.1243-.5838-.7566 0-1.455.1849-2.0952.5546-.6402.3697-1.164.9146-1.5714 1.6346-.388.7005-.582 1.5373-.582 2.5103 0 .9729.194 1.8292.582 2.5686.4074.72.9312 1.2746 1.5714 1.6638.6596.3892 1.358.5838 2.0952.5838.7566 0 1.4647-.1849 2.1243-.5546.6596-.3892 1.1834-.9341 1.5714-1.6346.388-.72.582-1.5762.582-2.5686ZM55.0502 14.3586c.5238-.7784 1.2416-1.4108 2.1534-1.8973.9312-.4865 1.9885-.7298 3.1719-.7298 1.3774 0 2.619.3406 3.7248 1.0217 1.1252.6811 2.0079 1.654 2.6481 2.9189.6596 1.2454.9894 2.6951.9894 4.3492 0 1.654-.3298 3.1232-.9894 4.4075-.6402 1.2649-1.5229 2.2476-2.6481 2.9482-1.1058.7005-2.3474 1.0508-3.7248 1.0508-1.2028 0-2.2601-.2335-3.1719-.7006-.8924-.4865-1.6102-1.1092-2.1534-1.8681v2.306h-4.074V6.56506h4.074v7.79354Zm8.5263 5.6627c0-.973-.2037-1.8098-.6111-2.5103-.388-.72-.9118-1.2649-1.5714-1.6346-.6402-.3697-1.3386-.5546-2.0952-.5546-.7372 0-1.4356.1946-2.0952.5838-.6402.3697-1.164.9146-1.5714 1.6346-.388.72-.582 1.5665-.582 2.5395 0 .9729.194 1.8194.582 2.5394.4074.72.9312 1.2746 1.5714 1.6638.6596.3697 1.358.5546 2.0952.5546.7566 0 1.455-.1946 2.0952-.5838.6596-.3892 1.1834-.9438 1.5714-1.6638.4074-.72.6111-1.5762.6111-2.5686ZM72.8808 6.56506V28.1651h-4.074V6.56506h4.074ZM91.0843 11.9937 81.103 35.8122h-4.3359l3.492-8.0564-6.4602-15.7621h4.5687l4.1613 11.2962 4.2195-11.2962h4.3359ZM5.04581 8.77832V20.7394c0 1.3816.3589 2.4422 1.0767 3.1816.7178.72 1.7266 1.08 3.0264 1.08 1.31919 0 2.33769-.36 3.05549-1.08.7178-.7394 1.0767-1.8 1.0767-3.1816v-8.7178h4.1031v8.6886c0 1.7319-.3783 3.2011-1.1349 4.4076-.7372 1.187-1.7363 2.0821-2.9973 2.6854-1.2416.6032-2.6287.9048-4.16129.9048-1.5132 0-2.8906-.3016-4.1322-.9048-1.22221-.6033-2.19221-1.4984-2.91001-2.6854-.7178-1.2065-1.076698-2.6757-1.076698-4.4076V8.77832H5.04581ZM94.4095 12.057c.5865 0 1.1106.1302 1.5723.3907.4711.2604.8365.6269 1.0961 1.0996.2597.463.3897.9935.3897 1.5915 0 .5884-.13 1.1141-.3897 1.5771-.2596.463-.625.8295-1.0961 1.0996-.4617.2605-.9858.3907-1.5723.3907-.5866 0-1.1155-.1302-1.5866-.3907-.4617-.2701-.8271-.6366-1.0964-1.0996-.2597-.463-.3893-.9887-.3893-1.5771 0-.598.1296-1.1285.3893-1.5915.2693-.4727.6347-.8392 1.0964-1.0996.4711-.2605 1-.3907 1.5866-.3907Zm0 5.4113c.6922 0 1.2454-.2122 1.6587-.6366.4232-.4341.6347-.9984.6347-1.6929 0-.7041-.2115-1.2684-.6347-1.6928-.4133-.4341-.9665-.6511-1.6587-.6511-.6923 0-1.2452.217-1.6587.6511-.4136.4244-.6205.9887-.6205 1.6928 0 .7042.2069 1.2685.6205 1.6929.4135.4244.9664.6366 1.6587.6366Zm1.356-2.9082c0 .2122-.053.3955-.1587.5498-.0964.1543-.2357.2701-.4184.3473l.7501 1.1864h-1.1252l-.6201-1.0852h-.0867v1.0852h-.9664v-3.0963h1.5145c.3366 0 .6059.0964.808.2894.2017.1832.3029.4244.3029.7234Zm-1.6732.2749h.4614c.0672 0 .1251-.0193.1733-.0579.0478-.0385.0721-.0964.0721-.1736 0-.1447-.0818-.217-.2454-.217h-.4614v.4485ZM2.92539 4.5753c1.21317 0 2.19663-.98647 2.19663-2.20336 0-1.21688-.98346-2.203361-2.19663-2.203361-1.21317 0-2.19663.986481-2.19663 2.203361 0 1.21689.98346 2.20336 2.19663 2.20336ZM15.4293 7.81847c1.2132 0 2.1966-.98648 2.1966-2.20336 0-1.21689-.9834-2.20337-2.1966-2.20337s-2.1966.98648-2.1966 2.20337c0 1.21688.9834 2.20336 2.1966 2.20336Z"/></g><defs><clipPath id="clip0_8325_2244"><path fill="#fff" d="M.681396 0h97v36h-97z"/></clipPath></defs></svg>