<svg width="85" height="37" viewBox="0 0 85 37" fill="none" xmlns="http://www.w3.org/2000/svg"><g clip-path="url(#clip0_8325_2265)" fill="#6F6F6F"><path d="M20.8419 6.59136c-.0043-.0922-.0108-.18878-.0261-.29854-.0065-.05049-.0217-.11854-.0283-.16244l-.0195-.10975c-.0523-.23708-.1089-.44342-.1807-.65635-.0718-.21073-.1523-.41707-.2459-.62121-.0935-.20415-.198-.40171-.3199-.59927-.124-.19756-.2611-.39073-.4504-.5883-.0327-.03292-.0697-.06365-.111-.09l-.0065-.00439c-.1132-.07024-.2351-.13609-.3787-.18658-.1436-.05049-.3112-.0922-.5158-.08561-.2002.00439-.4504.07683-.6441.23268-.1654.13171-.2677.29195-.333.44122-.0826.13829-.1545.32268-.1697.51805-.0174.2239.0283.41488.0805.55756.1067.28756.2329.46756.3504.64317l.3199.45.1501.20854c.0479.07244.0631.10975.098.17341.2415.50488.3068 1.17659.2742 1.85049-.0653 1.36537-.4614 2.77026-.938 4.13126-.4765 1.3697-1.0793 2.6956-1.7278 4.0214-.6355 1.3281-1.3253 2.6232-2.0783 3.881-.7508 1.2578-1.5581 2.4849-2.4329 3.6637-.8748 1.1765-1.81713 2.3092-2.80946 3.3936-.99451 1.0778-2.05865 2.1029-3.19461 3.0293-.56798.461-1.15772.9-1.7801 1.26-.31555.1668-.64632.3666-.95534.4368-.15451.0329-.33514.0439-.457 0-.11534-.0373-.2089-.1449-.30466-.2788-.07834-.2458-.09575-.4961-.09793-.7705 0-.2743.01088-.5641.03699-.8363.05006-.5641.11317-1.1327.18499-1.6968.14797-1.1283.33948-2.2478.58321-3.3586.2372-1.1305.4831-2.2302.78559-3.3387l.90964-3.3278c.60715-2.2215 1.19689-4.4539 1.76052-6.6798l.21108-.832c.06747-.2853.14581-.5312.23721-.8078.17409-.53776.383-1.08655.52228-1.67923l.21108-.84292c.09793-.40391-.00435-.84074-.2372-1.16561-.11751-.16244-.26767-.30513-.45264-.4083-.09358-.05048-.19585-.09439-.30684-.11853-.10228-.02854-.24808-.03074-.32207-.02854-.0914.00439-.18933.01317-.29814.03951-.1088.02634-.23067.07903-.33295.15366-.20674.15366-.29813.31829-.38518.45l.03264-.0461c-.04787.05708-.0914.12952-.12404.20195-.03047.07025-.04788.14049-.05876.19757-.02176.11853-.02611.21073-.03046.30073-.00653.1778-.00653.33585-.00653.49609 0 .32049 0 .6322-.00435.9461-.00871.62342-.05876 1.23147-.15451 1.84392-.19368 1.2249-.50922 2.4563-.81824 3.6834-.30902 1.2293-.65938 2.4498-.96839 3.6922l-.94011 3.6944c-.31337 1.2293-.63326 2.4761-.87917 3.7317-.252435 1.2534-.47658 2.5156-.598446 3.8107-.05658.6476-.087042 1.3061-.0087 1.9866.039171.3403.11098.6893.254607 1.0317.071814.1712.16321.3425.2829.5005l.100109.1229c.03699.0417.08051.0812.11315.112.07399.0658.15452.1273.24157.1822.16974.1097.37212.1931.57015.2305.18497.0417.40042.0526.58756.0351.38083-.0351.71596-.1471 1.03151-.2788.62891-.2678 1.18383-.6212 1.71481-.9966 1.05762-.7573 2.01296-1.6178 2.93565-2.5068.91617-.8868 1.80838-1.8088 2.65058-2.7746 1.6909-1.923 3.2251-3.9864 4.5852-6.1639 1.3601-2.1622 2.5809-4.4452 3.5689-6.8269.4896-1.1941.9314-2.4124 1.2687-3.6812l.1219-.47853.1044-.48512c.0392-.16244.0588-.32049.0871-.48073.0261-.15805.0587-.3161.0827-.4983.0457-.34463.0718-.6739.0848-1.01634.0066-.17122.0087-.34244 0-.52683l-.0022-.00219ZM19.6558 20.7961c.6615 0 1.1991-.5422 1.1991-1.2095s-.5376-1.2095-1.1991-1.2095c-.6616 0-1.1991.5422-1.1991 1.2095s.5375 1.2095 1.1991 1.2095ZM25.5359 24.1688c-.0675-.1515-.222-.2195-.3787-.1691l-.1675.0483c-.0349.0088-.0697.0308-.0958.0571-.2024.1976-3.2055 2.4388-4.5373 3.0776-.7638.3644-1.4036.5927-1.8976.6783-.1632.0241-.5876.0856-.6899.0417-.0043-.0856.024-.2086.0479-.3095.0109-.0461.0196-.09.0283-.1295.0653-.3447.1458-.7442.2807-1.1196.185-.5136.4462-1.0163.6986-1.5014.1327-.2569.2698-.5203.3961-.7837.1675-.3512.6746-1.4246-.0457-1.9119-.4157-.281-1.1164-.3512-1.5212.0285-.2764.259-.4243.619-.5549.9373-.0218.0527-.0435.1054-.0653.1581-.296.6936-.5266 1.418-.6833 2.1578l-.0239.1075c-.1916.8847-.4527 2.0942.0217 2.9195.2873.4983.7377.6257 1.1599.6257.1719 0 .3373-.0198.4831-.0461.6333-.0966 1.2187-.3535 2.1544-.8298 1.1904-.6761 4.3828-2.6846 4.7375-2.9832.0958-.0724.1611-.0966.2938-.1427.0109-.0043.0218-.0087.0327-.0153.2937-.1603.4352-.6476.3286-.8912l-.0022-.0044Z"/><path d="M36.2102 21.7772c-.0479-.0373-.0979-.0614-.1523-.0702-.1632-.0286-.2829.079-.3199.1141-.0022 0-.0152.0132-.0174.0154-.0958.0856-.1937.1712-.2894.2546-.1458.1273-.2917.2525-.4396.3754-1.2296 1.0361-2.6049 2.0129-3.6734 2.6166-.1719.0966-.3765.2217-.6006.3578-.5049.3073-1.1316.6915-1.7301.9571l-.1937.0856c-.5331.237-1.0859.4851-1.5603.608-.6855.18-1.1664.2305-1.5603.1668-.3025-.0504-.4744-.2085-.5244-.4873-.0958-.5378.2959-1.3588.6724-1.6463.2111.1163.5049.2524.7247.2415.9074-.0439 1.6517-.6169 2.1979-1.113.5419-.4917 1.2187-1.4773 1.4036-2.3356.1393-.641-.0109-1.1766-.4352-1.5519-.4265-.3776-1.1468-.3666-1.8824.0285-1.7431.9395-3.0553 2.5485-3.9019 4.781-.5723 1.5146-.3177 2.599.7204 3.0534.2894.1251.7398.1778 1.2534.1536.3678-.0175.7682-.0724 1.1664-.1646 1.0098-.2371 2.0261-.709 2.4678-.9505.9053-.4961 2.8682-1.8746 4.4459-2.9809.8096-.5686 1.5081-1.0581 1.8302-1.2644.2176-.1383.4896-.3117.5832-.6432.0631-.2239-.0131-.4676-.1872-.6037l.0022.0022Zm-9.4815 1.2688c.0217-.0527.05-.1054.0827-.1493.0892-.1273.2067-.2261.3307-.3292l.0719-.0615c.05-.0439.1349-.1273.2372-.2327.779-.7902 1.0554-.9307 1.1446-.9088.0044.0044.0174.0264.0283.0747.0218.1053-.0326.439-.087.6014-.2242.6718-.7399 1.2315-1.3449 1.462-.1502.0571-.2568.0746-.3395.0549-.0653-.0154-.1458-.0747-.1697-.191-.0196-.09-.0022-.2041.0457-.3205ZM61.2356 22.6255s-.011.0044-.0154.0066h-.0044l.0198-.0088v.0022Z"/><path d="M61.2942 21.6247c-.1066-.068-.2437-.0987-.4004-.0812-.2764.0308-.5201.1932-.7551.3447-1.8781 1.2007-3.9215 1.6507-6.139 1.6946-.7356.0153-1.4798.0044-2.1784-.1822-.174-.0461-.3481-.101-.5201-.1603l-.2589-.0922c-.0849-.0285-.1502-.068-.2176-.1207-.0327-.0263-.061-.0549-.0893-.0812-.0261-.0264-.0565-.0593-.0544-.0681-.0043-.0131-.0087-.0307-.0087-.0505-.0087-.0482-.0261-.1097-.0435-.1624-.037-.1098-.0849-.2173-.1654-.3205-.0783-.101-.198-.2063-.3721-.2524-.1393-.0308-.2698-.0176-.4004.0307-.0697.0285-.1219.0505-.2002.112-.0675.0548-.1067.1119-.1415.158-.0348.0527-.0522.0724-.0957.1515-.0348.0724-.0544.1602-.0501.2436.0131.1669.0892.2788.1545.3688.0653.09.1458.1646.2024.2261.0588.0593.0784.1054.0762.112.0043.0153-.0131.0812-.0501.1536-.0348.0725-.0783.1493-.124.2261-.1045.18-.1698.3315-.272.4786-.098.1558-.2002.3073-.3047.4587-.2089.3008-.4331.5949-.6659.8781-.4679.5663-.9836 1.0932-1.5603 1.5475-.581.4413-1.2252.821-1.9346.9879-.3395.0812-.729.0439-.9706-.1822-.2481-.2305-.3939-.573-.5027-.911-.1044-.3403-.148-.6959-.1632-1.0581-.0174-.3622 0-.7288.0457-1.0931.0479-.3622.124-.7376.2002-1.0954.037-.18.0827-.3556.1262-.5268.0588-.2195.0544-.4852-.0783-.72-.0675-.1164-.1502-.2086-.2655-.2854-.1132-.0746-.2481-.1163-.3765-.1207-.2611-.0088-.4853.0987-.6594.2568-.2872.2876-.4983.5971-.7159.9044-.2176.3051-.4287.6102-.6551.8978l-.6898.8758c-.4592.5839-.9249 1.1635-1.3971 1.7364-.4744.5707-.9597 1.1305-1.4863 1.6441-.272.2547-.5288.5181-.8117.7508-.1415.1185-.2851.2326-.4309.3424-.074.0549-.148.1076-.222.1581-.0283.0197-.0566.0351-.0848.0504.0108-.0439.0239-.0922.0391-.1383.0283-.0943.0631-.1865.0936-.2809.0653-.1888.1371-.3776.2067-.5642l.4287-1.1305c.2873-.7529.568-1.5102.8466-2.2697.2698-.7639.5614-1.5015.7986-2.3137.0566-.2085.1197-.4192.1262-.7222 0-.1536-.0391-.338-.1022-.4697-.0327-.0724-.0544-.112-.0871-.1668-.037-.0637-.0783-.1295-.1327-.191-.2089-.2393-.4831-.36-.7508-.3995-.2677-.0395-.5375.0044-.7769.1119l-.0348.0154c-.0849.0571-.148.1119-.2068.169-.0587.0571-.1109.1142-.1653.1712-.1023.1208-.2024.2305-.2917.3973l.0414-.057c-.0196.0219-.037.0483-.0522.0746l-.0131.0307c-.0087.0198-.013.0373-.0174.0505l-.0261.0856-.0435.1603-.074.3183c-.024.1075-.0457.2107-.0653.327l-.0065.0505-.0044.0571c0 .0154 0 .0351-.0043.0615-.0044.0461-.0131.0987-.0196.147-.0675.4083-.1611.8254-.2546 1.2381-.0958.4127-.1959.8253-.3025 1.2358-.1132.4127-.1981.8386-.2829 1.2556-.1632.8408-.3069 1.6859-.4026 2.5376-.0218.2129-.0522.4259-.0544.652-.0044.2195 0 .4456.0674.687.037.1186.1023.2459.2068.3425.1044.0965.235.1492.3547.1778.1219.0263.2372.0329.3504.0351.1218 0 .2459-.0198.359-.0549.2285-.0724.4244-.191.605-.3183.1806-.1273.3482-.2634.5114-.4061.3264-.2831.6311-.5795.9336-.8802.6049-.6081 1.1707-1.2381 1.7344-1.8768.5614-.6388 1.1098-1.2886 1.6539-1.9405.2698-.3271.5484-.6476.816-.9835l.3939-.5026.1937-.2503c.0043.0351.0087.0703.013.1076.0109.1427.0174.2897.0196.4346 0 .1471 0 .2942-.0022.4412-.0021.1537 0 .3052.0066.4588.013.3029.0544.6147.1066.9066.0479.2941.1066.6015.2372.8978.1306.2876.3047.5488.5245.7749.2176.2239.4874.4149.8052.4917.3155.0549.6049.0702.9161.0527.3069-.022.6093-.0966.8922-.2086.5593-.2239 1.0925-.5158 1.5734-.8868.4766-.3688.9118-.788 1.3166-1.2315.4048-.4434.7769-.9153 1.1272-1.4026.1763-.2437.3439-.4917.5093-.742.0805-.1251.1588-.2502.2437-.371.0413-.0614.0827-.1207.124-.1756.0131-.0153.024-.0307.037-.0461.6115.191 1.2405.3556 1.8846.4391.6616.0878 1.3275.0943 1.989.068.9488-.0395 1.902-.0768 2.8356-.2634.9335-.1866 1.8497-.5817 2.7419-.9615.383-.1624.7639-.3249 1.149-.4785.1241-.0505.2481-.1712.2895-.3139.0914-.292-.0044-.5597-.2155-.6937l-.0065.0044Zm-25.7223 8.3437-.0065-.0242s.0065.0154.0087.0242h-.0022Zm-.087-.0637h.0021-.0021Zm15.0177-6.131.05.0308s-.0065 0-.0108-.0022c-.0153-.0066-.0305-.0154-.0392-.0264v-.0022Z"/><path d="M68.7001 4.06764s-.0066-.01537-.0109-.02415c-.1132-.25683-.2981-.48073-.5354-.63-.7725-.48512-1.5733.05927-2.224.48951-.0783.05269-.1589.10318-.2394.15366-.3569.21732-.7138.43244-1.0706.64976-.9771.59049-1.9564 1.18317-2.927 1.78244-.3221.19975-.6463.39951-.964.60366-.1502.09658-.3286.18658-.4549.3117-.5701.56415.0066 1.87244.7574 1.91854.2306.01537.4591-.08122.6746-.18219.087-.04171 3.8997-2.10074 3.854-1.94269l-.0784.24586-1.6038 4.44516c-.4766 1.4224-1.0011 2.8383-1.5625 4.2322-1.6952 4.1992-2.3677 6.0168-4.0194 10.2336l-1.6517 4.219c-.4526 1.1788-.9314 2.351-1.2926 3.5627-.0871.2919-.1676.5971-.1197.8978.1523.979 1.6125.9637 2.2828.619.544-.2809.89-.9131 1.1076-1.5607.8857-2.6451 2.2611-6.8642 3.4036-10.2907.1719-.5137 4.9029-13.6646 6.3653-17.46441.1022-.26341.2154-.52463.3024-.79243.0718-.22391.1241-.45439.135-.69147.0152-.2678-.0218-.54219-.1263-.78805l-.0021.0022ZM83.8504 14.9072c-.2198-.6256-.6202-1.1765-1.2687-1.5761-2.1305-1.3522-5.0465-.0395-7.0029 1.0273-.8335.4544-1.6278.9681-2.396 1.5169.0501-.0922.1001-.1822.148-.2766.0653-.1207 1.0641-1.8022 2.4765-3.7647 2.7898-3.87654 6.9528-9.33798 7.0312-9.43676.1153-.14488.2111-.30075.2698-.47636.0914-.27878.0958-.59487.0066-.87365-.0893-.278782-.3221-.507075-.5615-.673904-.2459-.169025-.5658-.254636-.8465-.122929-.1415.065854-.2633.171222-.3743.280978-.6572.645365-1.1033 1.501465-1.6474 2.241225-2.5983 3.54073-5.0313 7.18903-7.4272 10.8681-2.2763 3.4968-4.5243 7.0639-5.9344 11.0216-.7878 2.2083-1.5604 5.0247-1.0316 7.3756.2699 1.2008 1.1012 2.3576 2.2915 2.6342 3.3731.7836 6.1999-1.8022 8.3413-4.0566 2.0935-2.2017 4.0128-4.601 5.5514-7.2329 1.3427-2.3005 3.3361-5.7293 2.3742-8.4754Zm-8.5915 13.5944c-1.5103 1.5388-3.2534 3.2312-5.3316 3.9622-.4875.1712-1.0359.2217-1.5168.0307-2.05-.8122-.4004-5.5427.1436-6.9212.6137-1.5563 1.3601-3.2861 2.4352-4.579 1.2273-1.4751 2.6984-2.7417 4.3262-3.7471.8139-.5026 1.6669-.9417 2.5483-1.3105.7029-.2941 1.458-.6409 2.2305-.6673.5027-.0175 1.0381.1449 1.3558.54.3699.461.3678 1.1173.2764 1.7034-.3243 2.0854-1.4124 4.1269-2.5549 5.8698-1.1425 1.7429-2.4351 3.6088-3.9149 5.1168l.0022.0022Z"/></g><defs><clipPath id="clip0_8325_2265"><path fill="#fff" d="M.316162.056885h84v36h-84z"/></clipPath></defs></svg>